<?xml version="1.0" encoding="utf-8"?>
<!-- Generator: Adobe Illustrator 16.0.0, SVG Export Plug-In . SVG Version: 6.00 Build 0)  -->
<!DOCTYPE svg PUBLIC "-//W3C//DTD SVG 1.1//EN" "http://www.w3.org/Graphics/SVG/1.1/DTD/svg11.dtd">
<svg version="1.1" id="Layer_1" xmlns="http://www.w3.org/2000/svg" xmlns:xlink="http://www.w3.org/1999/xlink" x="0px" y="0px"
	 width="455.714px" height="108.571px" viewBox="0 0 455.714 108.571" enable-background="new 0 0 455.714 108.571"
	 xml:space="preserve">
<g>
	<g>
		<path fill="#ED1C24" d="M147.979,28.839c0,6.443-4.706,12.129-14.117,17.058c6.105,3.025,9.159,7.507,9.159,13.445
			c0,5.434-2.466,9.804-7.395,13.108c-4.538,2.97-10.028,4.481-16.47,4.538L79.16,77.24c-0.393,0-0.588-0.168-0.588-0.504
			c-0.057-0.391,0.112-0.616,0.504-0.672c1.904-0.336,3.5-2.353,4.79-6.05c-1.737,0.281-4.006,1.429-6.807,3.445
			c-2.634,1.793-4.762,2.689-6.386,2.689c-1.345,0-3.025-0.308-5.042-0.924c-2.017-0.616-3.642-0.924-4.874-0.924
			c-0.953,0-2.017,0.309-3.193,0.924c-0.561,0.281-0.84,0.056-0.84-0.672c0-0.28,0.139-0.475,0.42-0.588
			c2.128-0.84,4.061-1.26,5.798-1.26c4.817,0,7.227-1.204,7.227-3.613c0-1.063-0.645-1.904-1.933-2.521
			c-1.008-0.504-2.157-0.756-3.445-0.756c-2.185,0-4.944,0.603-8.277,1.807c-3.333,1.205-6.092,1.806-8.276,1.806
			c-3.529,0-7.676-0.952-12.437-2.857c-0.281-0.111-0.42-0.307-0.42-0.588c0-0.616,0.28-0.84,0.84-0.672
			c1.792,0.561,3.92,0.84,6.386,0.84c3.752,0,8.332-1.513,13.738-4.538c5.405-3.025,9.985-4.538,13.739-4.538
			c0.896,0,2.072,0.084,3.529,0.252c1.456,0.168,2.604,0.252,3.445,0.252c3.081,0,4.622-0.784,4.622-2.353
			c0-2.8-2.913-4.201-8.739-4.201c-3.754,0-8.711,1.191-14.873,3.571c-6.163,2.381-11.289,3.571-15.377,3.571
			c-3.138,0-7.073-0.811-11.806-2.437c-4.734-1.624-8.669-2.437-11.806-2.437c-1.903,0-4.649,0.617-8.234,1.849
			c-0.392,0.168-0.644,0.057-0.756-0.336c-0.112-0.391,0.029-0.672,0.42-0.84c7.003-2.521,13.865-3.781,20.587-3.781
			c1.345,0,3.025,0.099,5.042,0.294c2.017,0.197,3.668,0.294,4.958,0.294c6.386,0,9.579-1.792,9.579-5.378
			c0-1.568-0.813-2.773-2.437-3.613c-1.345-0.672-2.998-1.008-4.958-1.008c-1.961,0-4.453,0.407-7.479,1.218
			c-3.025,0.813-5.518,1.218-7.479,1.218c-2.689,0-5.854-0.868-9.495-2.604c-0.391-0.168-0.504-0.448-0.336-0.84
			c0.113-0.391,0.365-0.504,0.756-0.336c3.193,1.177,5.489,1.765,6.89,1.765c2.185,0,5.91-1.105,11.176-3.319
			c5.265-2.212,9.634-3.319,13.108-3.319c3.416,0,7.716,0.882,12.898,2.647c5.181,1.765,9.453,2.647,12.814,2.647
			c4.929,0,7.87-0.084,8.823-0.252c3.193-0.448,4.79-1.681,4.79-3.697c0-1.681-1.29-2.521-3.865-2.521
			c-0.953,0-2.227,0.168-3.823,0.504c-1.597,0.336-2.899,0.504-3.907,0.504c-3.193,0-7.101-1.26-11.722-3.781
			s-8.501-3.781-11.638-3.781c-2.017,0-3.697,0.084-5.042,0.252c-0.393,0.057-0.617-0.111-0.672-0.504
			c-0.113-0.336,0.028-0.56,0.42-0.672c3.641-0.84,6.105-1.26,7.395-1.26c2.521,0,5.756,0.365,9.705,1.092
			c3.949,0.729,7.185,1.092,9.706,1.092c4.985,0,7.479-1.12,7.479-3.361c0-3.193-3.166-4.79-9.496-4.79
			c-1.008,0-2.283,0.042-3.823,0.126c-1.541,0.084-2.844,0.126-3.907,0.126c-0.336,0-1.401-0.112-3.193-0.336
			c-0.393-0.055-0.588-0.252-0.588-0.588c0-0.336,0.196-0.532,0.588-0.588c7.058-1.231,13.78-1.849,20.167-1.849
			c2.912,0,6.609,0.252,11.092,0.756c4.481,0.504,8.151,0.756,11.008,0.756h20.755c6.945-0.112,12.127,0.645,15.545,2.269
			C145.962,21.193,147.979,24.358,147.979,28.839z M44.96,27.999c-2.857,1.233-5.462,1.877-7.814,1.933
			c-1.513,0.057-3.46-0.517-5.84-1.723c-2.382-1.204-4.496-1.777-6.344-1.722c-0.672,0-1.709,0.113-3.109,0.336
			c-0.336,0.113-0.588,0-0.756-0.336c-0.168-0.28-0.113-0.504,0.168-0.672c2.912-1.456,5.798-2.24,8.655-2.353
			c1.288-0.055,3.263,0.575,5.924,1.891c2.66,1.317,4.496,1.947,5.504,1.891c0.728,0,1.82-0.084,3.277-0.252
			c0.279-0.055,0.475,0.057,0.588,0.336C45.324,27.663,45.24,27.888,44.96,27.999z M119.577,55.224c0-2.521-2.83-3.641-8.487-3.361
			l-4.622,12.1h5.546c2.8,0,4.201-0.644,4.201-1.933c0-1.288-0.701-1.933-2.101-1.933c-0.785,0-1.429,0.168-1.933,0.504
			c-0.393,0.168-0.701,0.113-0.924-0.168c-0.168-0.28-0.113-0.56,0.168-0.84c0.784-0.728,2.492-1.399,5.125-2.017
			C118.569,57.073,119.577,56.289,119.577,55.224z M126.131,34.974c0-3.08-2.494-4.706-7.479-4.874l-3.613,10.672
			c3.361-0.055,5.741-0.307,7.143-0.756C124.814,39.175,126.131,37.494,126.131,34.974z"/>
		<path fill="#FFF200" d="M79.163,78.24H79.16c-0.924,0-1.553-0.572-1.587-1.43c-0.061-0.543,0.117-0.916,0.281-1.134
			c0.171-0.229,0.497-0.518,1.08-0.602c1.147-0.204,2.253-1.402,3.227-3.495c-1.279,0.548-2.791,1.448-4.518,2.691
			c-2.85,1.941-5.123,2.877-6.97,2.877c-1.439,0-3.234-0.326-5.334-0.968c-1.914-0.584-3.455-0.88-4.581-0.88
			c-0.784,0-1.702,0.272-2.729,0.81c-0.904,0.453-1.689,0.205-2.069-0.481c-0.158-0.285-0.235-0.637-0.235-1.077
			c0-0.685,0.391-1.251,1.046-1.516c2.242-0.885,4.316-1.333,6.172-1.333c4.132,0,6.227-0.879,6.227-2.613
			c0-0.415-0.142-1.033-1.365-1.619c-0.878-0.439-1.887-0.658-3.013-0.658c-2.058,0-4.729,0.588-7.937,1.747
			c-3.424,1.238-6.323,1.866-8.616,1.866c-3.643,0-7.953-0.985-12.808-2.929c-0.655-0.26-1.048-0.827-1.048-1.516
			c0-1.192,0.763-1.726,1.519-1.726c0.194,0,0.393,0.031,0.608,0.096c1.697,0.531,3.746,0.798,6.099,0.798
			c3.561,0,8.019-1.484,13.25-4.41c5.531-3.096,10.318-4.665,14.227-4.665c0.931,0,2.157,0.087,3.644,0.259
			c1.411,0.163,2.532,0.245,3.33,0.245c1.652,0,3.622-0.235,3.622-1.353c0-2.124-2.604-3.201-7.739-3.201
			c-3.611,0-8.494,1.179-14.513,3.504c-6.248,2.414-11.542,3.638-15.737,3.638c-3.237,0-7.318-0.838-12.131-2.491
			c-4.609-1.581-8.472-2.383-11.481-2.383c-1.782,0-4.443,0.604-7.91,1.794c-0.567,0.252-1.697,0.198-2.042-1.005
			c-0.25-0.873,0.138-1.671,0.986-2.036c7.135-2.57,14.175-3.862,20.981-3.862c1.364,0,3.093,0.101,5.138,0.299
			c1.966,0.192,3.602,0.29,4.861,0.29c8.579,0,8.579-3.295,8.579-4.378c0-1.19-0.603-2.056-1.896-2.725
			c-1.186-0.593-2.704-0.896-4.499-0.896c-1.861,0-4.29,0.398-7.219,1.184c-3.092,0.831-5.696,1.252-7.738,1.252
			c-2.828,0-6.167-0.909-9.926-2.702c-0.846-0.362-1.195-1.199-0.848-2.079c0.254-0.792,0.877-1.075,1.385-1.075
			c0.228,0,0.466,0.052,0.708,0.156c3.018,1.111,5.22,1.684,6.496,1.684c2.042,0,5.672-1.09,10.788-3.241
			c5.365-2.254,9.905-3.397,13.496-3.397c3.511,0,7.959,0.909,13.221,2.7c5.053,1.721,9.255,2.594,12.492,2.594
			c6.039,0,8.037-0.129,8.65-0.237c3.963-0.556,3.963-2.179,3.963-2.712c0-0.455,0-1.521-2.865-1.521
			c-0.88,0-2.097,0.163-3.617,0.483c-1.68,0.354-3.026,0.525-4.113,0.525c-3.348,0-7.453-1.313-12.201-3.903
			c-4.451-2.428-8.206-3.659-11.159-3.659c-1.966,0-3.621,0.082-4.918,0.244c-0.081,0.012-0.175,0.019-0.265,0.019
			c-0.778,0-1.361-0.501-1.507-1.286c-0.136-0.484-0.025-0.857,0.097-1.089c0.135-0.257,0.423-0.601,1.023-0.773
			c3.8-0.879,6.292-1.299,7.67-1.299c2.566,0,5.893,0.373,9.886,1.109c3.87,0.714,7.074,1.076,9.524,1.076
			c2.956,0,6.479-0.41,6.479-2.361c0-2.515-2.858-3.79-8.496-3.79c-0.986,0-2.254,0.042-3.769,0.125
			c-1.549,0.085-2.882,0.128-3.962,0.128c-0.245,0-0.856-0.036-3.317-0.344c-0.895-0.125-1.464-0.745-1.464-1.58
			c0-0.832,0.567-1.452,1.446-1.578c7.058-1.232,13.901-1.859,20.309-1.859c2.937,0,6.707,0.256,11.204,0.763
			c4.426,0.498,8.092,0.75,10.896,0.75h20.755c0.437-0.007,0.882-0.011,1.32-0.011c6.406,0,11.336,0.799,14.655,2.376
			c4.389,2.012,6.621,5.512,6.621,10.398c0,6.423-4.379,12.155-13.023,17.056c5.354,3.174,8.065,7.689,8.065,13.447
			c0,5.762-2.637,10.452-7.837,13.939c-4.687,3.067-10.409,4.649-17.018,4.707L79.163,78.24z M79.143,76.239l0.017,1l-0.006-0.999
			C79.15,76.24,79.146,76.24,79.143,76.239z M85.362,68.758l-0.553,1.584c-1.012,2.902-2.218,4.849-3.655,5.885l37.996-0.239
			c6.217-0.055,11.577-1.526,15.928-4.375c4.668-3.13,6.942-7.146,6.942-12.271c0-5.575-2.814-9.68-8.603-12.549l-1.759-0.872
			l1.739-0.91c9.011-4.72,13.581-10.161,13.581-16.172c0-4.091-1.788-6.9-5.466-8.586c-3.274-1.556-8.358-2.288-15.113-2.178
			h-20.771c-2.878,0-6.62-0.256-11.12-0.763c-4.423-0.498-8.117-0.75-10.98-0.75c-5.412,0-11.145,0.456-17.079,1.358
			c0.05,0.002,0.083,0.003,0.105,0.003c1.044,0,2.34-0.042,3.853-0.125c1.551-0.084,2.856-0.127,3.878-0.127
			c6.964,0,10.496,1.948,10.496,5.79c0,2.894-2.853,4.361-8.479,4.361c-2.572,0-5.898-0.373-9.887-1.109
			c-3.874-0.714-7.079-1.076-9.523-1.076c-0.467,0-1.114,0.062-1.938,0.186c3.263,0.042,7.284,1.355,11.954,3.902
			c4.451,2.428,8.234,3.659,11.243,3.659c0.935,0,2.18-0.162,3.701-0.482c1.679-0.354,2.997-0.526,4.029-0.526
			c4.233,0,4.865,2.206,4.865,3.521c0,1.777-0.98,4.033-5.651,4.688c-0.985,0.174-3.928,0.262-8.962,0.262
			c-3.456,0-7.876-0.909-13.136-2.7c-5.054-1.721-9.285-2.594-12.576-2.594c-3.323,0-7.603,1.09-12.721,3.241
			c-4.777,2.008-8.276,3.109-10.644,3.348c0.436,0.044,0.857,0.066,1.266,0.066c1.867,0,4.296-0.398,7.219-1.184
			c3.099-0.831,5.702-1.252,7.738-1.252c2.108,0,3.927,0.375,5.405,1.114c2.473,1.28,2.989,3.157,2.989,4.508
			c0,4.232-3.56,6.378-10.579,6.378c-1.325,0-3.025-0.101-5.055-0.299c-1.981-0.192-3.645-0.289-4.945-0.289
			c-3.62,0-7.312,0.379-11.043,1.133c3.063,0.148,6.811,0.976,11.158,2.467c4.604,1.581,8.466,2.382,11.481,2.382
			c3.947,0,9-1.179,15.017-3.503c6.25-2.415,11.375-3.639,15.233-3.639c6.462,0,9.739,1.75,9.739,5.201
			c0,1.53-0.975,3.353-5.622,3.353c-0.875,0-2.072-0.087-3.56-0.258c-1.412-0.164-2.561-0.246-3.415-0.246
			c-3.563,0-8.021,1.484-13.25,4.41c-5.533,3.096-10.319,4.665-14.227,4.665c-0.854,0-1.674-0.033-2.458-0.1
			c3.002,0.915,5.71,1.376,8.088,1.376c2.06,0,4.73-0.587,7.937-1.747c3.427-1.238,6.326-1.866,8.617-1.866
			c1.439,0,2.749,0.29,3.893,0.861c2.052,0.983,2.485,2.401,2.485,3.416c0,2.901-2.487,4.447-7.395,4.601
			c0.661,0.149,1.376,0.341,2.149,0.577c1.911,0.584,3.509,0.881,4.75,0.881c1.413,0,3.372-0.846,5.823-2.516
			c2.933-2.112,5.298-3.296,7.21-3.606L85.362,68.758z M112.015,64.963h-6.998l5.373-14.066l0.652-0.032
			c0.583-0.029,1.136-0.043,1.661-0.043c5.226,0,7.875,1.481,7.875,4.403c0,1.578-1.273,2.695-3.783,3.323
			c-0.854,0.2-1.562,0.395-2.147,0.58c1.62,0.186,2.569,1.241,2.569,2.903C117.216,63.977,115.466,64.963,112.015,64.963z
			 M107.921,62.963h4.093c1.547,0,3.201-0.245,3.201-0.933c0-0.563-0.077-0.933-1.101-0.933c-0.58,0-1.043,0.113-1.378,0.336
			l-0.161,0.087c-0.809,0.345-1.606,0.156-2.101-0.465l-0.075-0.107c-0.41-0.682-0.291-1.453,0.318-2.062
			c0.96-0.893,2.733-1.61,5.604-2.283c0.667-0.167,2.253-0.643,2.253-1.379c0-1.714-2.32-2.525-6.788-2.388L107.921,62.963z
			 M113.637,41.794l4.307-12.719l0.743,0.025c6.979,0.236,8.445,3.324,8.445,5.874c0,2.951-1.606,5.024-4.645,5.994
			c-1.508,0.483-3.938,0.746-7.43,0.804L113.637,41.794z M119.357,31.136l-2.911,8.598c2.505-0.093,4.329-0.318,5.431-0.671
			c2.221-0.709,3.254-2.008,3.254-4.089C125.131,34.105,125.132,31.533,119.357,31.136z M36.939,30.936
			c-1.658,0-3.648-0.6-6.085-1.834c-2.124-1.073-4.024-1.618-5.647-1.618l-0.215,0.003c-0.631,0-1.602,0.106-2.915,0.313
			c-0.776,0.217-1.505-0.126-1.875-0.866c-0.244-0.399-0.225-0.808-0.16-1.068c0.065-0.261,0.241-0.63,0.71-0.91
			c3.09-1.548,6.139-2.375,9.128-2.494l0.198-0.004c1.458,0,3.489,0.653,6.208,1.998c3.147,1.558,4.44,1.791,4.932,1.791
			l0.129-0.003c0.686,0,1.75-0.083,3.163-0.246c0.035-0.01,0.143-0.02,0.246-0.02c0.62,0,1.138,0.365,1.384,0.976
			c0.3,0.896-0.034,1.667-0.81,1.975c-2.936,1.268-5.691,1.945-8.161,2.003L36.939,30.936z M25.206,25.483
			c1.939,0,4.144,0.617,6.551,1.833c2.121,1.075,3.864,1.619,5.182,1.619l0.169-0.003c1.317-0.031,2.732-0.262,4.233-0.688
			c-0.018,0.001-0.07,0.002-0.123,0.002c-1.216,0-3.065-0.635-5.819-1.998c-2.993-1.479-4.546-1.79-5.321-1.79l-0.116,0.002
			c-1.768,0.07-3.564,0.417-5.369,1.035c0.132-0.006,0.254-0.009,0.369-0.009L25.206,25.483z"/>
	</g>
	<g>
		<path fill="#ED1C24" d="M200.412,41.36c0,3.081-1.275,6.961-3.823,11.638c-2.55,4.678-3.823,7.997-3.823,9.958
			c0,0.561,0.616,0.98,1.849,1.26c1.12,0.281,2.128,0,3.025-0.84c0.223-0.28,0.476-0.336,0.756-0.168
			c0.28,0.168,0.336,0.42,0.168,0.756c-1.849,4.482-2.773,8.516-2.773,12.1c0,0.504-0.252,0.7-0.756,0.588
			c-10.14-0.336-17.114,0-20.923,1.008c-0.393,0.112-0.645,0.055-0.756-0.168c-0.168-0.225-0.14-0.477,0.084-0.756
			c0.447-0.616,1.176-2.353,2.185-5.209c-3.417,2.521-6.079,4.23-7.983,5.125c-2.745,1.345-5.602,2.017-8.571,2.017
			c-3.753,0-6.947-1.849-9.579-5.546c-1.458,0.672-2.661,1.008-3.613,1.008c-1.008,0-2.283-0.475-3.823-1.428
			c-1.542-0.952-2.927-1.372-4.159-1.26c-0.392,0.056-0.616-0.084-0.672-0.42c-0.055-0.391,0.113-0.643,0.504-0.756
			c0.672-0.279,1.345-0.42,2.017-0.42c0.559,0,1.414,0.141,2.563,0.42c1.147,0.281,2.114,0.42,2.899,0.42
			c1.063,0,2.128-0.336,3.193-1.008c0.559-3.249,1.82-6.218,3.781-8.907c-1.008,0.113-2.746,0.533-5.21,1.261
			c-2.129,0.672-3.753,1.008-4.874,1.008c-0.449,0-0.869-0.042-1.26-0.126c-0.393-0.084-0.561-0.322-0.504-0.714
			c0-0.336,0.196-0.504,0.588-0.504c4.649,0,6.974-1.26,6.974-3.781c0-1.008-0.561-1.512-1.681-1.512
			c-0.561,0-1.596,0.168-3.109,0.504c-1.512,0.336-2.605,0.504-3.277,0.504c-0.336,0-0.742-0.055-1.219-0.168
			c-0.475-0.111-0.826-0.168-1.05-0.168c-0.391-0.055-0.588-0.279-0.588-0.672c0.056-0.336,0.308-0.504,0.756-0.504
			c1.625,0.113,3.417-0.322,5.378-1.302c1.96-0.979,3.613-1.471,4.958-1.471c1.345,0,3.011,0.393,5,1.176
			c1.988,0.785,3.626,1.206,4.916,1.261c6.33-4.034,13.36-6.05,21.091-6.05c0.111-2.072-1.233-3.109-4.034-3.109
			c-4.874,0-8.655,0.869-11.344,2.605c-0.281,0.224-0.533,0.252-0.756,0.084c-0.225-0.168-0.281-0.42-0.168-0.756
			c0.112-0.896,0.28-2.212,0.504-3.949c-1.122,0.168-2.214,0.252-3.277,0.252c-1.176,0-3.781-0.364-7.814-1.092
			c-0.393-0.055-0.561-0.28-0.504-0.672c0-0.336,0.196-0.504,0.588-0.504c5.433,0,8.151-0.756,8.151-2.269
			c0-1.344-0.84-2.212-2.521-2.605c-0.953-0.223-2.577-0.336-4.874-0.336c-1.008,0-2.017,0.197-3.025,0.588
			c-0.392,0.168-0.645,0.029-0.756-0.42c-0.168-0.391-0.057-0.643,0.336-0.756c2.8-0.895,5.069-1.344,6.806-1.344
			c1.4,0,3.179,0.155,5.336,0.462c2.156,0.309,3.935,0.462,5.336,0.462c1.96,0,5.504-0.742,10.629-2.227
			c5.126-1.484,9.172-2.227,12.142-2.227c2.744,0,5.153,0.84,7.227,2.521C199.291,36.066,200.412,38.448,200.412,41.36z
			 M176.8,56.737c-2.802,0.785-5.294,1.849-7.479,3.193c-2.634,1.681-3.949,3.39-3.949,5.126c0,1.344,0.952,2.017,2.857,2.017
			c2.128,0,4.033-0.56,5.714-1.681L176.8,56.737z"/>
		<path fill="#FFF200" d="M159.07,79.668c-3.847,0-7.177-1.786-9.908-5.312c-1.273,0.521-2.353,0.774-3.284,0.774
			c-1.211,0-2.634-0.516-4.35-1.578c-1.345-0.83-2.531-1.206-3.542-1.114c-0.055,0.009-0.155,0.016-0.248,0.016
			c-0.783,0-1.373-0.498-1.501-1.268c-0.125-0.882,0.328-1.597,1.152-1.863c0.779-0.317,1.571-0.478,2.355-0.478
			c0.643,0,1.558,0.146,2.799,0.448c1.062,0.26,1.958,0.392,2.663,0.392c0.748,0,1.518-0.214,2.292-0.637
			c0.468-2.418,1.321-4.706,2.548-6.83c-0.787,0.197-1.719,0.455-2.792,0.771c-2.231,0.704-3.924,1.049-5.157,1.049
			c-0.518,0-1.012-0.05-1.47-0.148c-0.889-0.191-1.39-0.88-1.293-1.765c0.034-0.859,0.663-1.431,1.587-1.431
			c5.974,0,5.974-2.093,5.974-2.781c0-0.341,0-0.512-0.681-0.512c-0.333,0-1.105,0.083-2.892,0.48
			c-1.6,0.355-2.743,0.528-3.494,0.528c-0.422,0-0.896-0.064-1.45-0.196c-0.558-0.13-0.768-0.141-0.819-0.141l-0.14-0.01
			c-0.88-0.124-1.448-0.776-1.448-1.662l0.014-0.165c0.108-0.648,0.623-1.34,1.742-1.34c0.214,0.012,0.36,0.018,0.508,0.018
			c1.323,0,2.812-0.409,4.423-1.214c2.123-1.061,3.891-1.576,5.405-1.576c1.483,0,3.239,0.408,5.367,1.246
			c1.719,0.679,3.16,1.072,4.29,1.172c6.085-3.81,12.886-5.832,20.233-6.017c-0.062-0.158-0.148-0.294-0.257-0.41
			c-0.442-0.467-1.362-0.713-2.659-0.713c-4.632,0-8.254,0.815-10.766,2.422c-0.625,0.474-1.37,0.491-1.936,0.065
			c-0.543-0.406-0.745-1.06-0.548-1.764c0.082-0.653,0.192-1.517,0.33-2.592c-0.719,0.068-1.429,0.103-2.121,0.103
			c-1.25,0-3.864-0.362-7.992-1.108c-0.544-0.076-0.871-0.364-1.042-0.592c-0.165-0.219-0.343-0.591-0.283-1.137
			c0.034-0.859,0.663-1.431,1.587-1.431c6.957,0,7.151-1.256,7.151-1.269c0-0.397,0-1.223-1.749-1.631
			c-0.878-0.206-2.441-0.31-4.646-0.31c-0.877,0-1.773,0.175-2.664,0.521c-0.674,0.293-1.719,0.188-2.067-1.034
			c-0.214-0.553-0.116-0.976,0.007-1.237c0.127-0.27,0.405-0.626,1.001-0.799c2.903-0.928,5.229-1.383,7.083-1.383
			c1.435,0,3.277,0.159,5.477,0.472c2.097,0.3,3.845,0.453,5.195,0.453c1.859,0,5.342-0.736,10.351-2.187
			c5.195-1.504,9.374-2.267,12.42-2.267c2.967,0,5.61,0.923,7.856,2.744c2.478,2.045,3.731,4.708,3.731,7.919
			c0,3.235-1.327,7.312-3.945,12.116c-2.972,5.453-3.663,8.1-3.7,9.371c0.099,0.073,0.379,0.237,1.068,0.393
			c0.854,0.213,1.442,0.021,2.078-0.557c0.431-0.495,0.919-0.571,1.178-0.571c0.28,0,0.555,0.079,0.817,0.236
			c0.728,0.437,0.948,1.265,0.549,2.062c-1.759,4.273-2.667,8.216-2.667,11.652c0,1.118-0.756,1.618-1.506,1.618
			c-0.116,0-0.238-0.011-0.364-0.034c-9.947-0.325-16.876,0.005-20.554,0.979c-0.774,0.22-1.516-0.013-1.863-0.606
			c-0.31-0.468-0.421-1.193,0.155-1.911c0.119-0.166,0.383-0.639,0.878-1.86c-2.227,1.54-4.031,2.629-5.471,3.307
			C165.211,78.955,162.179,79.668,159.07,79.668z M149.825,71.867l0.48,0.675c2.456,3.449,5.323,5.126,8.765,5.126
			c2.802,0,5.538-0.644,8.131-1.915c1.848-0.87,4.478-2.561,7.829-5.032l2.62-1.933l-1.083,3.07
			c-0.891,2.523-1.455,3.867-1.832,4.626c3.038-0.65,7.382-0.959,13.289-0.959c2.063,0,4.339,0.04,6.77,0.118
			c0.067-3.237,0.84-6.82,2.304-10.693c-0.526,0.246-1.083,0.371-1.664,0.371c0,0,0,0,0,0c-0.347,0-0.704-0.046-1.063-0.135
			c-1.722-0.391-2.605-1.143-2.605-2.23c0-2.152,1.291-5.566,3.945-10.436c2.456-4.507,3.701-8.262,3.701-11.159
			c0-2.623-0.98-4.707-2.998-6.372c-1.9-1.541-4.058-2.292-6.59-2.292c-2.858,0-6.85,0.736-11.864,2.188
			c-5.263,1.525-8.831,2.266-10.907,2.266c-1.444,0-3.288-0.159-5.478-0.473c-2.105-0.3-3.854-0.452-5.194-0.452
			c-0.151,0-0.306,0.004-0.467,0.011c0.923,0.06,1.654,0.154,2.208,0.284c2.865,0.669,3.293,2.529,3.293,3.579
			c0,2.019-2.375,2.812-5.255,3.106c1.853,0.287,3.133,0.431,3.835,0.431c1.009,0,2.062-0.081,3.129-0.241l1.31-0.196l-0.17,1.313
			c-0.171,1.321-0.309,2.398-0.414,3.232c2.785-1.556,6.542-2.344,11.186-2.344c1.913,0,3.257,0.438,4.11,1.338
			c0.674,0.711,0.984,1.662,0.922,2.825l-0.051,0.946h-0.948c-7.502,0-14.417,1.983-20.554,5.894l-0.266,0.169l-0.315-0.014
			c-1.414-0.061-3.128-0.496-5.24-1.33c-1.863-0.734-3.422-1.106-4.633-1.106c-1.18,0-2.697,0.459-4.511,1.365
			c-0.427,0.213-0.849,0.403-1.264,0.569c0.188-0.039,0.388-0.082,0.601-0.129c1.621-0.36,2.678-0.528,3.326-0.528
			c1.679,0,2.681,0.939,2.681,2.512c0,0.95-0.263,1.98-1.104,2.84c1.964-0.555,3.367-0.875,4.278-0.977l2.258-0.253l-1.339,1.836
			c-1.861,2.551-3.074,5.407-3.604,8.487l-0.075,0.439l-0.376,0.237c-1.223,0.771-2.477,1.163-3.727,1.163
			c-0.866,0-1.921-0.151-3.137-0.449c-0.474-0.115-0.863-0.198-1.184-0.257c0.551,0.224,1.117,0.515,1.695,0.872
			c1.708,1.058,2.736,1.279,3.298,1.279c0.802,0,1.876-0.308,3.194-0.917L149.825,71.867z M168.229,68.072
			c-3.481,0-3.857-2.109-3.857-3.017c0-2.093,1.484-4.101,4.411-5.969c2.266-1.395,4.867-2.506,7.747-3.313l1.808-0.507
			l-3.553,10.765l-0.287,0.191C172.659,67.45,170.55,68.072,168.229,68.072z M175.241,58.269c-1.977,0.68-3.786,1.522-5.396,2.512
			c-2.3,1.468-3.473,2.909-3.473,4.274c0,0.355,0,1.017,1.857,1.017c1.799,0,3.438-0.448,4.875-1.331L175.241,58.269z"/>
	</g>
	<g>
		<path fill="#ED1C24" d="M277.97,17.16c-3.307,5.154-7.424,15.125-12.353,29.914c-1.793,5.377-3.613,10.728-5.462,16.049
			c-1.905,6.05-2.856,10.251-2.856,12.604c0,0.729,0.084,1.315,0.252,1.765c0.111,0.28,0.111,0.475,0,0.588
			c-0.113,0.111-0.336,0.168-0.673,0.168c-5.882-0.504-12.24-0.504-19.074,0c-0.28,0.055-0.504,0-0.672-0.168
			c-0.113-0.168-0.113-0.365,0-0.588c0.168-0.729,0.392-1.597,0.672-2.605c-3.81,2.744-8.066,4.118-12.772,4.118
			c-7.003,0-11.848-3.781-14.537-11.344c-1.625-0.504-2.772-0.756-3.445-0.756c-0.561,0-1.765,0.113-3.613,0.336
			c-1.345,0.168-2.55,0.141-3.613-0.084c-0.393-0.055-0.561-0.28-0.504-0.672c0.055-0.336,0.279-0.504,0.672-0.504
			c1.345,0,3.109-0.728,5.294-2.185c2.632-1.68,4.34-2.66,5.125-2.941c0.448-2.576,1.177-4.929,2.185-7.058
			c-1.233-1.008-2.872-1.513-4.916-1.513c-2.045,0-3.459-0.055-4.243-0.168c-0.393-0.055-0.588-0.252-0.588-0.588
			c0-0.336,0.196-0.532,0.588-0.588c1.063-0.168,2.716-0.672,4.958-1.513c1.904-0.728,3.557-1.092,4.958-1.092
			c0.111,0,0.727,0.057,1.848,0.168l1.513-2.101c-2.857-1.008-5.743-1.513-8.655-1.513c-2.746,0-5.126,0.365-7.143,1.092
			c-0.617,0.225-0.924,0.029-0.924-0.588c0-0.28,0.139-0.476,0.42-0.588c1.68-0.84,4.845-1.428,9.495-1.765
			c3.584-0.223,5.378-0.868,5.378-1.933c0-0.84-0.729-1.512-2.185-2.017c-1.905-0.672-3.109-1.26-3.613-1.765
			c-0.168-0.168-0.252-0.336-0.252-0.504c0-0.392,0.223-0.588,0.672-0.588c0.111,0,0.252,0.057,0.42,0.168
			c0.896,0.785,2.156,1.176,3.781,1.176c1.008,0,2.269-0.153,3.781-0.462c1.513-0.307,2.744-0.462,3.697-0.462
			c1.288,0,2.801,0.477,4.538,1.429c3.697-3.248,8.319-4.874,13.864-4.874c3.642,0,7.198,1.205,10.672,3.613l2.521-7.646
			c-2.186-1.625-4.23-2.437-6.135-2.437c-0.896,0-1.891,0.126-2.982,0.378c-1.093,0.252-2.704,0.294-4.832,0.126
			c-0.393,0-0.561-0.223-0.504-0.672c0.055-0.392,0.279-0.56,0.672-0.504c0.336,0.057,0.7,0.084,1.093,0.084
			c1.063,0,2.8-0.475,5.21-1.428c2.407-0.952,4.396-1.429,5.966-1.429h2.772l1.093-4.538c0.055-0.223,0.252-0.336,0.588-0.336
			c10.588,0.225,17.59-0.504,21.007-2.185c0.336-0.168,0.616-0.139,0.841,0.084C278.193,16.544,278.193,16.823,277.97,17.16z
			 M244.947,48.67c-1.064-0.896-1.961-1.344-2.688-1.344c-3.025,0-5.701,1.233-8.025,3.697c-2.325,2.466-3.487,4.958-3.487,7.479
			c0,1.457,0.406,2.745,1.218,3.865c0.812,1.121,1.891,1.681,3.235,1.681c2.801,0,4.789-0.756,5.966-2.269l1.093-3.613
			c-0.897-1.008-1.821-1.512-2.773-1.512c-1.905,0-3.306,0.252-4.201,0.756c-0.393,0.168-0.672,0.14-0.84-0.084
			c-0.225-0.224-0.225-0.504,0-0.84c0.783-1.232,2.548-2.128,5.293-2.689c2.576-0.56,3.949-1.092,4.118-1.597L244.947,48.67z"/>
		<path fill="#FFF200" d="M225.032,80.004c-7.288,0-12.435-3.879-15.305-11.532c-1.569-0.465-2.32-0.568-2.677-0.568
			c-0.511,0-1.687,0.111-3.494,0.329c-1.442,0.181-2.773,0.147-3.939-0.098c-0.516-0.07-0.842-0.359-1.013-0.587
			c-0.171-0.229-0.358-0.623-0.274-1.206c0.138-0.847,0.773-1.361,1.662-1.361c0.783,0,2.24-0.35,4.739-2.017
			c2.737-1.747,4.068-2.48,4.794-2.82c0.41-2.144,1.02-4.157,1.819-6.004c-0.97-0.568-2.198-0.856-3.663-0.856
			c-2.118,0-3.553-0.058-4.386-0.178c-0.877-0.123-1.446-0.743-1.446-1.578c0-0.833,0.568-1.452,1.447-1.578
			c0.978-0.155,2.58-0.646,4.748-1.459c2.005-0.766,3.793-1.156,5.309-1.156c0.098,0,0.279,0.01,1.373,0.116l0.375-0.521
			c-2.327-0.69-4.69-1.04-7.042-1.04c-2.613,0-4.902,0.348-6.803,1.033c-0.833,0.303-1.539,0.128-1.947-0.43
			c-0.21-0.287-0.316-0.657-0.316-1.099c0-0.687,0.392-1.253,1.048-1.517c1.739-0.874,4.968-1.484,9.795-1.834
			c3.992-0.249,4.458-0.974,4.461-0.981c-0.011-0.296-0.577-0.697-1.523-1.025c-2.758-0.974-3.6-1.609-3.993-2.002
			c-0.45-0.45-0.545-0.907-0.545-1.211c0-0.95,0.672-1.588,1.672-1.588c0.315,0,0.633,0.109,0.972,0.334l0.107,0.082
			c0.703,0.616,1.753,0.928,3.122,0.928c0.94,0,2.145-0.148,3.582-0.442c1.6-0.325,2.874-0.482,3.897-0.482
			c1.311,0,2.757,0.403,4.405,1.229c3.782-3.102,8.487-4.674,13.997-4.674c3.441,0,6.844,1.03,10.13,3.063l1.883-5.709
			c-1.778-1.211-3.442-1.824-4.954-1.824c-0.816,0-1.744,0.119-2.758,0.353c-1.203,0.278-2.888,0.326-5.136,0.148
			c-0.003,0-0.006,0-0.009,0c-0.516,0-0.871-0.261-1.064-0.481c-0.203-0.23-0.428-0.646-0.344-1.313
			c0.131-0.941,0.793-1.513,1.804-1.37c0.303,0.051,0.614,0.074,0.953,0.074c0.643,0,2.004-0.236,4.842-1.358
			c2.55-1.009,4.622-1.499,6.334-1.499h1.984l0.908-3.772c0.132-0.535,0.609-1.102,1.561-1.102c1.261,0.026,2.452,0.04,3.592,0.04
			c8.4,0,14.11-0.714,16.974-2.122c0.706-0.353,1.464-0.248,1.987,0.272c0.443,0.447,0.706,1.23,0.129,2.102
			c-3.238,5.048-7.358,15.038-12.238,29.679c-1.8,5.399-3.639,10.803-5.466,16.061c-1.855,5.894-2.801,10.033-2.801,12.276
			c0,0.604,0.063,1.08,0.188,1.415c0.348,0.872,0.01,1.402-0.224,1.64c-0.323,0.318-0.772,0.467-1.386,0.467
			c-5.958-0.504-12.22-0.501-18.949-0.006c-0.612,0.103-1.117-0.068-1.504-0.455l-0.122-0.148c-0.292-0.433-0.335-0.962-0.122-1.47
			c0.005-0.021,0.01-0.043,0.015-0.065C232.791,79.03,229.047,80.004,225.032,80.004z M207.05,65.904
			c0.791,0,1.98,0.254,3.741,0.801l0.478,0.148l0.168,0.472c2.555,7.186,7.002,10.679,13.595,10.679
			c4.468,0,8.568-1.322,12.188-3.929l2.311-1.664l-0.763,2.743c-0.215,0.77-0.395,1.457-0.542,2.061
			c6.472-0.456,12.585-0.458,18.21-0.007c-0.094-0.445-0.137-0.929-0.137-1.481c0-2.481,0.949-6.703,2.902-12.904
			c1.833-5.278,3.67-10.674,5.468-16.065c4.649-13.954,8.643-23.766,11.88-29.199c-3.753,1.45-10.38,2.059-20.147,1.868
			l-1.172,4.868h-3.561c-1.436,0-3.318,0.457-5.598,1.358c-0.152,0.061-0.302,0.119-0.449,0.175
			c0.497-0.059,0.973-0.088,1.425-0.088c2.115,0,4.38,0.886,6.731,2.634l0.579,0.431l-3.167,9.603l-1.1-0.763
			c-3.288-2.279-6.688-3.435-10.103-3.435c-5.269,0-9.711,1.556-13.204,4.625l-0.526,0.462l-0.614-0.336
			c-1.581-0.866-2.946-1.306-4.057-1.306c-0.875,0-2.052,0.149-3.498,0.442c-1.41,0.288-2.635,0.448-3.649,0.477
			c1.225,0.633,1.846,1.483,1.846,2.534c0,2.118-2.994,2.684-5.799,2.895c2.204,0.207,4.401,0.694,6.56,1.456l1.258,0.444
			l-2.629,3.651l-0.573-0.057c-1.029-0.102-1.616-0.158-1.764-0.163c-1.256,0-2.804,0.345-4.586,1.026
			c-0.977,0.366-1.84,0.669-2.598,0.91c0.461,0.009,0.97,0.013,1.527,0.013c2.271,0,4.139,0.585,5.549,1.739l0.605,0.495
			l-0.334,0.707c-0.966,2.04-1.674,4.329-2.104,6.802l-0.1,0.574l-0.548,0.196c-0.49,0.176-1.743,0.811-4.925,2.842
			c-1.081,0.721-2.068,1.273-2.971,1.66c0.151-0.014,0.305-0.031,0.46-0.05C205.257,66.013,206.443,65.904,207.05,65.904z
			 M235.2,65.047c-1.678,0-3.04-0.705-4.045-2.094c-0.934-1.288-1.408-2.786-1.408-4.452c0-2.771,1.265-5.519,3.759-8.165
			c2.511-2.662,5.455-4.011,8.753-4.011c0.979,0,2.069,0.517,3.332,1.579l0.508,0.427l-1.288,4.163
			c-0.274,0.822-1.181,1.479-4.861,2.278c-1.411,0.289-2.544,0.67-3.368,1.13c0.809-0.167,1.774-0.25,2.904-0.25
			c1.245,0,2.43,0.622,3.521,1.847l0.372,0.418l-1.309,4.327l-0.114,0.146C240.584,64.154,238.312,65.047,235.2,65.047z
			 M242.258,48.326c-2.764,0-5.15,1.107-7.298,3.383c-2.133,2.262-3.214,4.548-3.214,6.792c0,1.252,0.336,2.325,1.028,3.278
			c0.626,0.865,1.396,1.268,2.426,1.268c2.372,0,4.075-0.587,5.065-1.747l0.865-2.861c-0.563-0.522-1.115-0.787-1.646-0.787
			c-2.146,0-3.202,0.341-3.71,0.627l-0.098,0.048c-0.812,0.347-1.54,0.198-1.989-0.347c-0.414-0.451-0.64-1.21-0.076-2.053
			c0.931-1.465,2.873-2.49,5.924-3.113c2.487-0.54,3.22-0.932,3.41-1.063l0.842-2.724C242.963,48.427,242.486,48.326,242.258,48.326
			z"/>
	</g>
	<g>
		<path fill="#ED1C24" d="M327.377,33.125c-1.345,1.233-3.025,4.23-5.042,8.991c-2.241,5.267-4.033,8.768-5.378,10.504
			c-0.393,0.504-0.743,0.407-1.05-0.294c-0.309-0.7-0.799-1.05-1.471-1.05c-1.681,0-3.781,0.701-6.303,2.101
			c-1.849,1.065-3.36,2.101-4.537,3.109c-1.121,2.745-2.395,6.302-3.823,10.671s-2.143,6.974-2.143,7.814
			c0,0.504,0.252,1.206,0.756,2.101c0.112,0.279,0.112,0.504,0,0.672c-0.168,0.168-0.42,0.223-0.756,0.168
			c-4.538-0.561-8.039-0.84-10.504-0.84H275.28c-0.336,0-0.561-0.084-0.672-0.252c-0.169-0.168-0.169-0.391,0-0.672l3.613-6.975
			c-0.562-0.727-1.065-1.092-1.513-1.092c-0.336,0-0.785,0.057-1.345,0.168c-0.561,0.113-1.009,0.168-1.345,0.168
			c-1.064,0-2.409-0.237-4.033-0.714c-1.625-0.476-2.913-0.714-3.865-0.714c-0.504,0-1.429,0.281-2.772,0.84
			c-0.112,0.056-0.224,0.084-0.337,0.084c-0.279,0-0.475-0.139-0.588-0.42c-0.055-0.223,0.029-0.448,0.252-0.672
			c1.065-1.12,2.493-1.792,4.285-2.017c0.728-0.112,2.549-0.168,5.462-0.168c0.952,0,2.24-0.252,3.865-0.756
			c1.625-0.504,3.109-0.7,4.454-0.588l2.688-7.059h-0.924c-0.729,0-1.653,0.155-2.773,0.462c-1.121,0.309-2.045,0.462-2.772,0.462
			c-1.569,0.057-3.138-0.111-4.706-0.504c-0.393-0.112-0.588-0.307-0.588-0.588c0-0.336,0.195-0.532,0.588-0.588
			c0.841-0.112,1.681-0.224,2.521-0.336c0.84-0.111,1.597-0.42,2.269-0.924c2.688-1.96,5.63-3.361,8.823-4.201l1.092-3.193
			c-1.849-1.792-3.838-2.689-5.966-2.689c-0.561,0-1.289,0.084-2.185,0.252c-0.896,0.168-1.626,0.252-2.185,0.252
			c-1.009,0-2.34-0.168-3.991-0.504c-1.653-0.336-2.983-0.504-3.992-0.504c-0.561,0-1.4,0.168-2.521,0.504
			c-0.392,0.113-0.672-0.027-0.84-0.42c-0.112-0.391,0.028-0.644,0.42-0.756c1.12-0.391,2.101-0.588,2.94-0.588
			c0.673,0,1.54,0.098,2.605,0.294c1.063,0.197,1.903,0.294,2.521,0.294c2.857,0,4.285-0.896,4.285-2.689
			c0-1.231-0.869-1.849-2.604-1.849c-0.336,0-0.785,0.042-1.345,0.126c-0.561,0.084-1.008,0.126-1.344,0.126
			c-1.233,0-2.662-0.252-4.286-0.756c-0.393-0.112-0.533-0.364-0.42-0.756c0.168-0.391,0.448-0.532,0.841-0.42
			c1.119,0.336,2.044,0.504,2.772,0.504c1.12,0,2.521-0.223,4.201-0.672c1.681-0.448,3.053-0.672,4.117-0.672
			c1.177,0,2.521,0.504,4.034,1.512c1.624,1.177,3.221,1.877,4.789,2.101l1.597-4.454c0.111-0.392,0-0.952-0.336-1.681
			c-0.113-0.28-0.113-0.504,0-0.672c0.111-0.111,0.336-0.168,0.672-0.168c8.235,0.168,14.845,0.197,19.831,0.084
			c0.279,0,0.475,0.057,0.588,0.168c0.056,0.113,0.056,0.309,0,0.588l-1.513,4.79c7.282-4.37,13.08-6.386,17.395-6.05
			c0.336,0,0.531,0.113,0.588,0.336C327.684,32.677,327.6,32.902,327.377,33.125z"/>
		<path fill="#FFF200" d="M297.867,78.933c-0.123,0-0.255-0.011-0.396-0.034c-4.432-0.547-7.924-0.827-10.343-0.827H275.28
			c-0.789,0-1.219-0.32-1.448-0.619c-0.348-0.4-0.535-1.065-0.08-1.821l3.268-6.313c-0.222-0.21-0.333-0.24-0.335-0.24
			c-0.159,0.002-0.507,0.028-1.125,0.151c-0.625,0.125-1.13,0.187-1.54,0.187c-1.174,0-2.585-0.247-4.314-0.754
			c-1.528-0.447-2.734-0.674-3.584-0.674c-0.13,0-0.687,0.055-2.388,0.764c-0.189,0.097-0.453,0.161-0.722,0.161
			c-0.685,0-1.251-0.391-1.516-1.047l-0.044-0.136c-0.08-0.329-0.12-0.976,0.515-1.614c1.208-1.271,2.853-2.052,4.87-2.304
			c0.761-0.117,2.597-0.176,5.586-0.176c0.847,0,2.048-0.239,3.569-0.711c1.445-0.449,2.846-0.688,4.072-0.664l1.904-4.999
			c-0.548,0.055-1.208,0.188-1.971,0.397c-1.216,0.335-2.21,0.498-3.037,0.498c-0.174,0.007-0.384,0.011-0.594,0.011
			c-1.446,0-2.911-0.183-4.355-0.544c-1.25-0.356-1.345-1.283-1.345-1.559c0-0.833,0.567-1.452,1.446-1.578l2.53-0.338
			c0.675-0.089,1.263-0.329,1.801-0.733c2.642-1.926,5.546-3.344,8.649-4.226l0.709-2.075c-1.527-1.333-3.105-1.982-4.809-1.982
			c-0.495,0-1.168,0.079-2,0.235c-0.967,0.181-1.741,0.269-2.369,0.269c-1.088,0-2.458-0.171-4.19-0.524
			c-1.58-0.321-2.856-0.484-3.793-0.484c-0.316,0-0.961,0.08-2.233,0.462c-0.925,0.265-1.684-0.137-2.046-0.984l-0.042-0.118
			c-0.266-0.925,0.178-1.727,1.104-1.993c1.17-0.41,2.271-0.627,3.217-0.627c0.738,0,1.649,0.102,2.786,0.311
			c0.995,0.184,1.782,0.277,2.34,0.277c3.285,0,3.285-1.227,3.285-1.689c0-0.317,0-0.849-1.604-0.849
			c-0.197,0-0.564,0.02-1.195,0.115c-0.616,0.092-1.104,0.137-1.493,0.137c-1.327,0-2.869-0.27-4.582-0.801
			c-0.552-0.157-0.839-0.492-0.979-0.744s-0.271-0.672-0.106-1.245l0.042-0.117c0.362-0.844,1.157-1.236,2.033-0.987
			c1.034,0.311,1.871,0.466,2.499,0.466c1.031,0,2.358-0.215,3.943-0.639c1.782-0.475,3.214-0.706,4.375-0.706
			c1.392,0,2.893,0.55,4.589,1.68c1.232,0.892,2.429,1.486,3.584,1.784l1.304-3.635c-0.001,0.001-0.002,0.002-0.002,0.002
			c-0.009,0,0.007-0.271-0.299-0.933c-0.341-0.838-0.096-1.392,0.079-1.65l0.122-0.148c0.31-0.31,0.761-0.461,1.379-0.461
			c8.242,0.168,14.878,0.196,19.809,0.084h0.001c0.57,0,1.004,0.153,1.311,0.454l0.121,0.12l0.075,0.153
			c0.209,0.424,0.147,0.902,0.083,1.225l-0.027,0.106l-0.735,2.331c6.471-3.607,11.654-5.203,15.742-4.889c0.002,0,0.004,0,0.007,0
			c0.861,0,1.339,0.562,1.473,1.087c0.082,0.339,0.122,0.988-0.514,1.625c-0.879,0.807-2.399,2.937-4.829,8.674
			c-2.298,5.399-4.1,8.908-5.508,10.726c-0.454,0.583-0.937,0.704-1.262,0.704c-0.44,0-1.058-0.21-1.495-1.21
			c-0.199-0.451-0.404-0.451-0.555-0.451c-1.499,0-3.456,0.665-5.817,1.975c-1.678,0.966-3.089,1.923-4.188,2.84
			c-1.082,2.672-2.328,6.161-3.707,10.377c-1.889,5.778-2.093,7.172-2.093,7.504c0,0.149,0.062,0.604,0.627,1.611l0.057,0.117
			c0.318,0.792,0.076,1.343-0.097,1.601l-0.123,0.15C298.875,78.67,298.484,78.933,297.867,78.933z M297.867,77.396v0.537
			l0.003-0.535L297.867,77.396z M275.776,76.066l11.352,0.005c2.387,0,5.754,0.26,10.014,0.773c-0.336-0.714-0.51-1.342-0.51-1.874
			c0-0.662,0.249-2.183,2.192-8.125c1.433-4.381,2.727-7.995,3.848-10.739l0.092-0.224l0.184-0.157
			c1.218-1.044,2.796-2.126,4.688-3.217c2.713-1.506,4.934-2.234,6.802-2.234c0.897,0,1.639,0.412,2.131,1.172
			c1.263-1.851,2.883-5.105,4.848-9.723c1.788-4.223,3.312-7.067,4.632-8.644c-3.994,0.016-9.339,2.015-15.886,5.943l-2.263,1.358
			l2.13-6.745c-1.888,0.033-3.958,0.051-6.214,0.051c-3.626,0-7.861-0.047-12.597-0.142c0.242,0.696,0.291,1.284,0.148,1.785
			l-1.893,5.285l-0.808-0.115c-1.723-0.246-3.484-1.014-5.234-2.282c-1.306-0.87-2.477-1.322-3.447-1.322
			c-0.925,0-2.146,0.195-3.634,0.579c2.418,0.334,2.701,2.021,2.701,2.791c0,1.063-0.409,2.681-2.706,3.365
			c0.096,0.003,0.188,0.004,0.278,0.004c0.496,0,1.169-0.079,2-0.235c0.968-0.181,1.742-0.27,2.369-0.27
			c2.387,0,4.628,1,6.662,2.971l0.455,0.442l-1.471,4.3l-0.518,0.137c-3.058,0.804-5.913,2.164-8.489,4.042
			c-0.759,0.57-1.63,0.938-2.581,1.086c0.628,0.053,1.251,0.068,1.872,0.047c0.673,0,1.517-0.144,2.543-0.427
			c1.224-0.335,2.217-0.498,3.039-0.498h2.375l-3.473,9.118l-0.75-0.063c-1.212-0.1-2.58,0.083-4.074,0.547
			c-1.738,0.539-3.1,0.801-4.162,0.801c-3.545,0-4.845,0.085-5.31,0.157c-0.369,0.046-0.717,0.112-1.046,0.197
			c0.019,0,0.036,0,0.054,0c1.055,0,2.411,0.247,4.146,0.754c1.523,0.447,2.785,0.674,3.752,0.674c0.188,0,0.538-0.026,1.147-0.148
			c0.635-0.126,1.139-0.188,1.542-0.188c0.78,0,1.534,0.484,2.304,1.481l0.391,0.505L275.776,76.066z"/>
	</g>
	<g>
		<path fill="#ED1C24" d="M378.129,41.36c0,3.081-1.274,6.961-3.823,11.638c-2.55,4.678-3.823,7.997-3.823,9.958
			c0,0.561,0.616,0.98,1.849,1.26c1.12,0.281,2.128,0,3.025-0.84c0.223-0.28,0.475-0.336,0.756-0.168
			c0.279,0.168,0.336,0.42,0.168,0.756c-1.849,4.482-2.772,8.516-2.772,12.1c0,0.504-0.252,0.7-0.757,0.588
			c-10.14-0.336-17.114,0-20.923,1.008c-0.393,0.112-0.645,0.055-0.756-0.168c-0.168-0.225-0.141-0.477,0.084-0.756
			c0.447-0.616,1.176-2.353,2.185-5.209c-3.418,2.521-6.079,4.23-7.982,5.125c-2.746,1.345-5.603,2.017-8.571,2.017
			c-3.754,0-6.946-1.849-9.579-5.546c-1.457,0.672-2.661,1.008-3.613,1.008c-1.008,0-2.283-0.475-3.823-1.428
			c-1.541-0.952-2.927-1.372-4.159-1.26c-0.392,0.056-0.616-0.084-0.673-0.42c-0.055-0.391,0.113-0.643,0.505-0.756
			c0.672-0.279,1.344-0.42,2.017-0.42c0.56,0,1.414,0.141,2.563,0.42c1.147,0.281,2.114,0.42,2.899,0.42
			c1.063,0,2.128-0.336,3.192-1.008c0.56-3.249,1.82-6.218,3.781-8.907c-1.008,0.113-2.745,0.533-5.209,1.261
			c-2.13,0.672-3.754,1.008-4.874,1.008c-0.449,0-0.869-0.042-1.261-0.126c-0.393-0.084-0.561-0.322-0.504-0.714
			c0-0.336,0.195-0.504,0.588-0.504c4.649,0,6.975-1.26,6.975-3.781c0-1.008-0.561-1.512-1.681-1.512
			c-0.561,0-1.597,0.168-3.108,0.504c-1.513,0.336-2.605,0.504-3.277,0.504c-0.336,0-0.742-0.055-1.219-0.168
			c-0.476-0.111-0.825-0.168-1.05-0.168c-0.392-0.055-0.589-0.279-0.589-0.672c0.057-0.336,0.309-0.504,0.757-0.504
			c1.625,0.113,3.416-0.322,5.378-1.302c1.96-0.979,3.612-1.471,4.957-1.471s3.011,0.393,5,1.176
			c1.987,0.785,3.626,1.206,4.916,1.261c6.329-4.034,13.36-6.05,21.091-6.05c0.111-2.072-1.233-3.109-4.033-3.109
			c-4.874,0-8.655,0.869-11.344,2.605c-0.281,0.224-0.533,0.252-0.757,0.084c-0.225-0.168-0.281-0.42-0.168-0.756
			c0.111-0.896,0.279-2.212,0.504-3.949c-1.121,0.168-2.213,0.252-3.276,0.252c-1.177,0-3.781-0.364-7.815-1.092
			c-0.393-0.055-0.561-0.28-0.504-0.672c0-0.336,0.195-0.504,0.588-0.504c5.434,0,8.151-0.756,8.151-2.269
			c0-1.344-0.841-2.212-2.521-2.605c-0.953-0.223-2.577-0.336-4.873-0.336c-1.009,0-2.017,0.197-3.025,0.588
			c-0.393,0.168-0.645,0.029-0.756-0.42c-0.168-0.391-0.057-0.643,0.336-0.756c2.801-0.895,5.069-1.344,6.807-1.344
			c1.399,0,3.179,0.155,5.336,0.462c2.155,0.309,3.935,0.462,5.335,0.462c1.961,0,5.504-0.742,10.63-2.227
			c5.126-1.484,9.172-2.227,12.143-2.227c2.743,0,5.152,0.84,7.226,2.521C377.008,36.066,378.129,38.448,378.129,41.36z
			 M354.518,56.737c-2.803,0.785-5.294,1.849-7.479,3.193c-2.634,1.681-3.95,3.39-3.95,5.126c0,1.344,0.952,2.017,2.857,2.017
			c2.128,0,4.033-0.56,5.714-1.681L354.518,56.737z"/>
		<path fill="#FFF200" d="M336.788,79.668c-3.847,0-7.177-1.786-9.908-5.312c-1.272,0.521-2.353,0.774-3.284,0.774
			c-1.211,0-2.634-0.516-4.35-1.578c-1.345-0.83-2.531-1.207-3.542-1.114c-0.056,0.009-0.155,0.016-0.249,0.016
			c-0.782,0-1.371-0.497-1.501-1.267c-0.124-0.884,0.329-1.599,1.153-1.865c0.777-0.317,1.569-0.478,2.354-0.478
			c0.644,0,1.559,0.146,2.799,0.448c1.063,0.26,1.957,0.392,2.663,0.392c0.748,0,1.517-0.214,2.291-0.637
			c0.468-2.418,1.322-4.706,2.548-6.83c-0.787,0.197-1.719,0.455-2.791,0.771c-2.232,0.705-3.925,1.049-5.157,1.049
			c-0.518,0-1.012-0.05-1.471-0.148c-0.89-0.191-1.391-0.88-1.293-1.766c0.034-0.859,0.663-1.431,1.587-1.431
			c5.975,0,5.975-2.093,5.975-2.781c0-0.341,0-0.512-0.681-0.512c-0.334,0-1.105,0.083-2.892,0.48
			c-1.601,0.355-2.743,0.528-3.494,0.528c-0.422,0-0.896-0.064-1.45-0.196c-0.558-0.13-0.768-0.141-0.818-0.141l-0.14-0.01
			c-0.88-0.124-1.449-0.776-1.449-1.662l0.014-0.166c0.109-0.647,0.624-1.338,1.743-1.338c0.214,0.012,0.36,0.018,0.508,0.018
			c1.322,0,2.811-0.409,4.423-1.214c2.122-1.061,3.891-1.576,5.404-1.576c1.483,0,3.238,0.408,5.366,1.246
			c1.719,0.679,3.16,1.072,4.291,1.172c6.085-3.81,12.885-5.832,20.232-6.017c-0.063-0.158-0.148-0.294-0.258-0.41
			c-0.442-0.467-1.361-0.713-2.658-0.713c-4.654,0-8.288,0.823-10.802,2.445c-0.485,0.399-1.321,0.478-1.899,0.043
			c-0.545-0.408-0.746-1.062-0.549-1.765c0.081-0.653,0.19-1.517,0.329-2.591c-0.719,0.068-1.429,0.103-2.12,0.103
			c-1.249,0-3.864-0.362-7.993-1.108c-0.544-0.076-0.871-0.365-1.042-0.593c-0.165-0.219-0.344-0.592-0.283-1.138
			c0.034-0.858,0.663-1.43,1.587-1.43c6.957,0,7.151-1.256,7.151-1.269c0-0.397,0-1.223-1.749-1.631
			c-0.878-0.206-2.44-0.31-4.646-0.31c-0.878,0-1.773,0.175-2.663,0.521c-0.201,0.086-0.431,0.137-0.652,0.137
			c-0.529,0-1.17-0.31-1.416-1.17c-0.214-0.553-0.116-0.976,0.008-1.237c0.128-0.27,0.404-0.626,1.001-0.799
			c2.903-0.928,5.229-1.383,7.084-1.383c1.435,0,3.277,0.159,5.477,0.472c2.098,0.3,3.845,0.453,5.194,0.453
			c1.859,0,5.342-0.736,10.352-2.187c5.195-1.504,9.374-2.267,12.421-2.267c2.966,0,5.609,0.923,7.855,2.744
			c2.479,2.045,3.731,4.708,3.731,7.919c0,3.236-1.327,7.313-3.945,12.116c-2.972,5.453-3.663,8.1-3.699,9.371
			c0.098,0.073,0.379,0.236,1.068,0.393c0.853,0.212,1.44,0.021,2.078-0.557c0.43-0.495,0.918-0.571,1.178-0.571
			c0.279,0,0.555,0.079,0.816,0.236c0.728,0.438,0.947,1.265,0.55,2.062c-1.76,4.273-2.667,8.216-2.667,11.653
			c0,1.118-0.757,1.618-1.507,1.618c-0.116,0-0.238-0.011-0.364-0.034c-9.941-0.323-16.875,0.005-20.553,0.979
			c-0.774,0.22-1.517-0.012-1.862-0.607c-0.31-0.468-0.421-1.193,0.154-1.91c0.119-0.165,0.384-0.638,0.879-1.86
			c-2.228,1.54-4.031,2.629-5.471,3.307C342.928,78.955,339.896,79.668,336.788,79.668z M327.542,71.867l0.48,0.675
			c2.456,3.449,5.323,5.126,8.765,5.126c2.801,0,5.537-0.644,8.132-1.915c1.847-0.869,4.476-2.56,7.828-5.032l2.621-1.933
			l-1.084,3.07c-0.892,2.523-1.456,3.867-1.832,4.626c3.038-0.65,7.381-0.959,13.288-0.959c2.063,0,4.34,0.04,6.771,0.118
			c0.066-3.238,0.84-6.821,2.304-10.693c-0.526,0.246-1.083,0.371-1.665,0.371l0,0c-0.347,0-0.704-0.046-1.063-0.135
			c-1.722-0.391-2.605-1.143-2.605-2.23c0-2.152,1.29-5.566,3.945-10.436c2.456-4.506,3.701-8.261,3.701-11.159
			c0-2.623-0.98-4.707-2.998-6.371c-1.9-1.541-4.058-2.292-6.589-2.292c-2.858,0-6.85,0.736-11.864,2.188
			c-5.264,1.525-8.832,2.266-10.908,2.266c-1.444,0-3.287-0.159-5.477-0.473c-2.105-0.3-3.854-0.452-5.194-0.452
			c-0.15,0-0.307,0.004-0.467,0.011c0.922,0.06,1.653,0.154,2.206,0.284c2.866,0.669,3.294,2.529,3.294,3.579
			c0,2.019-2.374,2.812-5.256,3.106c1.854,0.287,3.134,0.431,3.836,0.431c1.009,0,2.062-0.081,3.128-0.241l1.31-0.196l-0.169,1.313
			c-0.171,1.321-0.31,2.399-0.415,3.233c2.785-1.556,6.543-2.345,11.188-2.345c1.912,0,3.257,0.438,4.109,1.338
			c0.675,0.711,0.985,1.662,0.923,2.825l-0.052,0.946h-0.947c-7.502,0-14.417,1.983-20.554,5.894l-0.266,0.169l-0.314-0.014
			c-1.415-0.061-3.129-0.496-5.24-1.33c-1.863-0.734-3.422-1.106-4.633-1.106c-1.18,0-2.697,0.459-4.51,1.365
			c-0.428,0.213-0.849,0.403-1.265,0.569c0.188-0.039,0.388-0.082,0.601-0.129c1.62-0.36,2.677-0.528,3.325-0.528
			c1.679,0,2.681,0.939,2.681,2.512c0,0.95-0.263,1.98-1.104,2.84c1.964-0.555,3.366-0.875,4.278-0.977l2.258-0.253l-1.339,1.836
			c-1.86,2.551-3.072,5.407-3.604,8.488l-0.075,0.438l-0.376,0.237c-1.223,0.771-2.477,1.163-3.727,1.163
			c-0.866,0-1.922-0.151-3.138-0.449c-0.474-0.115-0.863-0.198-1.184-0.257c0.552,0.224,1.117,0.515,1.695,0.872
			c1.708,1.058,2.736,1.279,3.298,1.279c0.802,0,1.877-0.308,3.194-0.917L327.542,71.867z M345.947,68.072
			c-3.481,0-3.857-2.109-3.857-3.017c0-2.092,1.484-4.101,4.412-5.969c2.267-1.395,4.868-2.507,7.747-3.313l1.808-0.506
			l-3.554,10.765l-0.287,0.191C350.376,67.45,348.267,68.072,345.947,68.072z M352.959,58.269c-1.978,0.68-3.786,1.522-5.396,2.512
			c-2.301,1.468-3.475,2.909-3.475,4.274c0,0.355,0,1.017,1.857,1.017c1.799,0,3.438-0.448,4.876-1.331L352.959,58.269z"/>
	</g>
	<g>
		<path fill="#ED1C24" d="M443.755,39.679c0,4.314-1.653,10.56-4.958,18.738c-3.642,8.907-5.658,14.902-6.05,17.982
			c-0.057,0.336-0.252,0.504-0.588,0.504l-20.839,0.336c-0.337,0-0.562-0.113-0.673-0.336c-0.057-0.168,0.027-0.393,0.252-0.672
			c1.456-1.568,3.529-6.105,6.219-13.613c2.575-7.058,3.865-11.176,3.865-12.352c0-1.231-0.309-1.849-0.925-1.849
			c-2.298,0-4.986,3.781-8.066,11.344c-0.953,2.409-2.886,8.039-5.798,16.89c-0.113,0.28-0.336,0.42-0.673,0.42
			c-4.762-0.168-8.486-0.252-11.175-0.252c-2.689,0-5.967,0.252-9.832,0.756c-0.336,0.055-0.561-0.056-0.672-0.336
			c-0.168-0.281-0.057-0.561,0.336-0.84c0.392-0.28,0.784-0.588,1.177-0.924c0.84-0.84,1.344-1.736,1.513-2.689
			c-1.009-0.84-1.794-1.26-2.354-1.26c-0.561,0-1.289,0.042-2.185,0.126c-0.896,0.084-1.653,0.126-2.269,0.126
			c-2.017,0-4.509-0.532-7.479-1.597c-0.392-0.168-0.532-0.42-0.42-0.756c0.056-0.391,0.309-0.532,0.756-0.42
			c1.009,0.281,2.241,0.42,3.697,0.42c1.567,0,3.431-0.63,5.588-1.891c2.156-1.26,4.467-1.946,6.933-2.059l2.269-5.293
			c-1.233-1.288-2.661-2.017-4.285-2.185c-2.241-0.168-3.838-0.475-4.79-0.924c-0.336-0.168-0.477-0.364-0.42-0.588
			c0-0.28,0.195-0.448,0.588-0.504c2.129-0.391,4.033-0.952,5.714-1.681c2.129-0.952,4.146-1.68,6.05-2.185l1.933-5.294
			c-1.064-0.727-2.045-1.092-2.94-1.092c-1.121,0-2.592,0.252-4.411,0.756c-1.821,0.504-3.292,0.756-4.412,0.756
			c-2.129,0-4.258-0.336-6.386-1.008c-0.393-0.112-0.533-0.364-0.42-0.756c0.168-0.391,0.447-0.532,0.84-0.42
			c0.896,0.281,1.903,0.42,3.025,0.42c3.248,0,4.873-0.952,4.873-2.857c0-0.56-0.504-0.84-1.513-0.84c-0.168,0-0.561,0-1.176,0
			c-0.561,0.057-1.037,0.084-1.429,0.084c-2.353,0-4.594-0.364-6.723-1.092c-0.391-0.112-0.531-0.364-0.42-0.756
			c0.113-0.336,0.365-0.475,0.757-0.42c0.84,0.168,1.681,0.252,2.521,0.252c1.456,0,3.221-0.546,5.294-1.639
			c2.071-1.092,3.809-1.639,5.21-1.639c1.176,0,2.632,0.378,4.369,1.135c1.735,0.756,3.193,1.134,4.369,1.134
			c0.728,0,1.345-0.055,1.849-0.168l2.101-5.546c0.056-0.223,0.252-0.336,0.589-0.336l19.074-0.252c0.279,0,0.476,0.084,0.588,0.252
			c0.111,0.168,0.111,0.365,0,0.588l-1.345,3.529c4.202-1.849,6.862-2.996,7.983-3.445c3.137-1.063,6.05-1.597,8.738-1.597
			c1.681,0,3.193,0.798,4.538,2.395S443.755,37.663,443.755,39.679z"/>
		<path fill="#FFF200" d="M384.358,78.589c-0.635,0-1.158-0.339-1.415-0.911c-0.294-0.563-0.289-1.419,0.656-2.093
			c0.367-0.263,0.737-0.553,1.106-0.87c0.481-0.485,0.829-1.003,1.029-1.55c-0.837-0.618-1.178-0.639-1.22-0.639
			c-0.527,0-1.23,0.041-2.091,0.122c-0.924,0.086-1.719,0.13-2.362,0.13c-2.123,0-4.753-0.557-7.816-1.655
			c-0.896-0.382-1.282-1.124-1.058-1.927c0.174-0.909,0.965-1.413,1.974-1.161c0.939,0.261,2.094,0.39,3.455,0.39
			c1.382,0,3.092-0.59,5.083-1.754c2.102-1.229,4.373-1.951,6.76-2.153l1.755-4.094c-0.952-0.838-2.004-1.308-3.196-1.432
			c-2.361-0.176-4.043-0.509-5.114-1.015c-1.001-0.5-1.04-1.24-0.989-1.6c0.042-0.595,0.437-1.242,1.441-1.387
			c2.005-0.369,3.854-0.912,5.458-1.608c1.974-0.882,3.887-1.587,5.686-2.095l1.477-4.042c-0.632-0.343-1.209-0.516-1.722-0.516
			c-1.026,0-2.421,0.242-4.144,0.72c-1.927,0.533-3.457,0.792-4.68,0.792c-2.221,0-4.471-0.355-6.687-1.055
			c-0.547-0.155-0.834-0.49-0.974-0.742s-0.271-0.672-0.106-1.245l0.042-0.117c0.362-0.844,1.156-1.237,2.031-0.988
			c0.818,0.256,1.735,0.382,2.753,0.382c3.41,0,3.817-1.083,3.866-1.656c-0.101-0.021-0.261-0.041-0.506-0.041h-1.126
			c-0.563,0.056-1.061,0.084-1.479,0.084c-2.453,0-4.824-0.386-7.047-1.146c-0.876-0.25-1.32-1.049-1.058-1.976
			c0.281-0.838,0.938-1.267,1.858-1.137c0.828,0.164,1.61,0.242,2.381,0.242c1.285,0,2.909-0.513,4.828-1.523
			c2.237-1.18,4.095-1.754,5.676-1.754c1.326,0,2.886,0.398,4.769,1.218c1.602,0.698,2.937,1.051,3.97,1.051
			c0.417,0,0.79-0.02,1.116-0.058l1.884-4.972c0.157-0.506,0.635-1.02,1.538-1.02l19.061-0.252c0.844,0,1.259,0.436,1.433,0.696
			c0.312,0.471,0.334,1.049,0.063,1.59l-0.459,1.209c2.946-1.289,4.903-2.128,5.831-2.5c3.279-1.113,6.327-1.668,9.11-1.668
			c1.981,0,3.766,0.925,5.303,2.751c1.494,1.774,2.252,3.814,2.252,6.064c0,4.483-1.646,10.735-5.031,19.113
			c-3.593,8.788-5.605,14.753-5.984,17.733c-0.144,0.853-0.761,1.378-1.58,1.378l-20.822,0.336c-0.731,0-1.303-0.325-1.585-0.891
			l-0.052-0.126c-0.173-0.512-0.031-1.056,0.42-1.618c0.979-1.059,2.779-4.177,6.057-13.324c3.313-9.079,3.807-11.424,3.807-12.015
			c0-0.453-0.049-0.706-0.088-0.836c-0.954,0.14-3.268,1.6-6.978,10.708c-0.938,2.371-2.882,8.035-5.773,16.825
			c-0.292,0.727-0.875,1.108-1.623,1.108c-4.759-0.167-8.507-0.252-11.175-0.252c-2.631,0-5.896,0.251-9.703,0.748
			C384.565,78.581,384.458,78.589,384.358,78.589z M384.515,70.526c0.82,0,1.771,0.474,2.993,1.492l0.446,0.372l-0.102,0.571
			c-0.204,1.154-0.807,2.238-1.79,3.222c-0.091,0.079-0.18,0.154-0.267,0.227c3.312-0.393,6.174-0.59,8.551-0.59
			c2.65,0,6.347,0.083,10.99,0.245c2.844-8.645,4.777-14.274,5.726-16.67c3.329-8.174,6.187-11.976,8.996-11.976
			c0.719,0,1.925,0.37,1.925,2.849c0,0.831-0.407,3.05-3.926,12.695c-2.444,6.824-4.374,11.185-5.869,13.262l19.618-0.315
			c0.49-3.234,2.479-9.101,6.064-17.87c3.24-8.018,4.884-14.197,4.884-18.36c0-1.79-0.583-3.353-1.781-4.776
			c-1.156-1.372-2.39-2.039-3.773-2.039c-2.563,0-5.396,0.52-8.417,1.544c-1.069,0.43-3.744,1.584-7.902,3.414l-2.188,0.962
			l1.997-5.239l-18.298,0.241l-2.176,5.743l-0.525,0.118c-0.578,0.129-1.254,0.192-2.067,0.192c-1.328,0-2.888-0.398-4.769-1.217
			c-1.603-0.698-2.938-1.052-3.97-1.052c-1.23,0-2.827,0.513-4.743,1.523c-1.628,0.857-3.067,1.395-4.359,1.625
			c0.81,0.097,1.631,0.146,2.464,0.146c0.363,0,0.81-0.026,1.328-0.079l0.101-0.005h1.176c2.331,0,2.513,1.409,2.513,1.84
			c0,1.401-0.646,3.017-3.361,3.617c0.143,0.003,0.286,0.005,0.429,0.005c1.025,0,2.42-0.242,4.146-0.72
			c1.924-0.533,3.454-0.792,4.678-0.792c1.095,0,2.274,0.426,3.505,1.267l0.642,0.438l-2.378,6.514l-0.505,0.134
			c-1.842,0.488-3.826,1.205-5.897,2.131c-1.315,0.57-2.766,1.043-4.333,1.414c0.704,0.145,1.646,0.278,2.908,0.373
			c1.885,0.194,3.535,1.032,4.933,2.491l0.457,0.478l-2.776,6.478l-0.626,0.029c-2.292,0.105-4.47,0.752-6.474,1.923
			c-2.183,1.275-4.066,1.938-5.744,2.019c1.145,0.24,2.181,0.361,3.097,0.361c0.582,0,1.313-0.041,2.175-0.122
			C383.16,70.57,383.926,70.526,384.515,70.526z"/>
	</g>
</g>
</svg>
