<?xml version="1.0" encoding="utf-8"?>
<!-- Generator: Adobe Illustrator 16.0.0, SVG Export Plug-In . SVG Version: 6.00 Build 0)  -->
<!DOCTYPE svg PUBLIC "-//W3C//DTD SVG 1.1//EN" "http://www.w3.org/Graphics/SVG/1.1/DTD/svg11.dtd">
<svg version="1.1" id="Layer_1" xmlns="http://www.w3.org/2000/svg" xmlns:xlink="http://www.w3.org/1999/xlink" x="0px" y="0px"
	 width="341.429px" height="127.143px" viewBox="0 0 341.429 127.143" enable-background="new 0 0 341.429 127.143"
	 xml:space="preserve">
<g>
	<rect width="341.429" height="127.143"/>
</g>
<g>
	<path fill="#FFF200" d="M109.158,15.815c-2.017,0.225-3.936,0.504-5.756,0.84c-1.821,0.336-3.544,0.924-5.168,1.765
		c1.231,0.953,2.408,2.045,3.529,3.277c2.017,2.409,3.095,5.14,3.235,8.192c0.139,3.054-0.659,5.896-2.395,8.529
		c-1.458,2.13-3.277,3.811-5.462,5.042c-2.185,1.233-4.482,2.157-6.89,2.773c1.344,0.953,2.492,2.045,3.445,3.277
		c1.849,2.466,2.801,5.21,2.857,8.235c0.055,3.025-0.504,5.911-1.681,8.655c-1.122,2.689-2.704,5.056-4.748,7.101
		c-2.046,2.045-4.412,3.599-7.101,4.664c-1.344,0.504-2.76,0.882-4.243,1.134c-1.485,0.252-2.956,0.322-4.412,0.21
		c-1.458-0.113-2.872-0.42-4.244-0.924c-1.373-0.504-2.619-1.26-3.739-2.269c-1.457-1.176-2.507-2.632-3.151-4.37
		c-0.645-1.736-0.911-3.5-0.798-5.293c-0.617,0.617-1.247,1.232-1.891,1.848c-0.645,0.617-1.302,1.233-1.975,1.849
		c-2.409,2.13-5.042,3.937-7.898,5.42c-2.857,1.484-5.938,2.227-9.243,2.227c-3.306-0.057-6.163-0.966-8.571-2.731
		c-2.41-1.765-4.063-4.215-4.958-7.353c-0.84-2.801-1.106-5.769-0.798-8.907c0.308-3.136,1.063-6.147,2.269-9.033
		c1.204-2.885,2.815-5.49,4.832-7.815c2.017-2.324,4.37-4.13,7.059-5.419c1.231-0.56,2.492-0.994,3.781-1.303
		c1.288-0.307,2.576-0.406,3.865-0.294c0.111-1.513,0.517-3.025,1.218-4.538c0.7-1.513,1.525-2.828,2.479-3.949
		c1.792-2.353,3.962-4.383,6.512-6.092c2.548-1.708,5.223-3.067,8.024-4.075c1.904-0.672,3.949-1.231,6.134-1.681
		c2.185-0.448,4.439-0.727,6.764-0.84c2.324-0.111,4.622-0.013,6.89,0.294c2.269,0.308,4.439,0.854,6.512,1.638
		c2.632-1.288,5.378-2.002,8.235-2.143C104.537,13.617,107.029,14.303,109.158,15.815z M69.497,23.714
		c0.616,2.857,0.588,5.785-0.084,8.781c-0.672,2.998-1.989,5.561-3.95,7.688c-0.896,0.953-1.961,1.779-3.193,2.479
		c-1.233,0.701-2.521,1.163-3.865,1.386c0.504,2.185,0.532,4.412,0.084,6.681c-0.449,2.269-1.29,4.327-2.521,6.176
		c-0.84,1.29-1.821,2.424-2.941,3.403c-1.121,0.98-2.353,1.793-3.697,2.437c-1.344,0.645-2.76,1.08-4.243,1.303
		c-1.485,0.225-2.983,0.197-4.496-0.084c-0.281-0.112-0.603-0.196-0.966-0.252c-0.365-0.055-0.659-0.168-0.882-0.336
		c-0.168-0.055-0.21-0.168-0.126-0.336c0.084-0.168,0.223-0.322,0.42-0.462c0.196-0.139,0.391-0.265,0.588-0.378
		c0.195-0.112,0.322-0.196,0.378-0.252c0.336-0.168,0.644-0.349,0.924-0.546c0.28-0.196,0.56-0.406,0.84-0.63
		c1.176-0.784,2.254-1.693,3.235-2.731c0.979-1.036,1.806-2.198,2.479-3.487c0.448-0.784,0.91-1.946,1.387-3.487
		c0.475-1.54,0.769-3.067,0.882-4.58c0.111-1.513-0.084-2.857-0.588-4.033c-0.504-1.177-1.513-1.82-3.025-1.933
		c-1.569-0.055-3.025,0.21-4.37,0.798c-1.344,0.588-2.563,1.401-3.655,2.437c-1.092,1.037-2.059,2.214-2.899,3.529
		c-0.84,1.317-1.513,2.619-2.017,3.907c-0.504,1.29-0.924,2.689-1.26,4.201c-0.336,1.513-0.533,3.025-0.588,4.538
		c-0.057,1.513,0.084,3.012,0.42,4.496c0.336,1.485,0.896,2.844,1.681,4.075c0.896,1.401,2.002,2.382,3.319,2.941
		c1.315,0.561,2.702,0.798,4.159,0.714c1.456-0.084,2.912-0.42,4.37-1.008c1.456-0.588,2.744-1.302,3.865-2.143
		c2.521-1.904,4.719-4.172,6.596-6.806c1.876-2.632,3.655-5.265,5.336-7.899c1.904-2.857,3.767-5.685,5.588-8.487
		c1.819-2.8,3.71-5.573,5.672-8.319c1.904-2.688,3.851-5.307,5.84-7.856c1.988-2.548,4.159-4.971,6.512-7.269
		c0.559-0.559,1.134-1.105,1.723-1.639c0.588-0.532,1.189-1.021,1.807-1.47c-1.458-0.504-2.956-0.882-4.496-1.134
		c-1.542-0.252-2.956-0.434-4.244-0.546c-3.082-0.28-6.176-0.069-9.285,0.63c-3.109,0.701-5.953,1.947-8.529,3.739
		c-1.344,0.953-2.563,2.087-3.655,3.403c-1.092,1.317-1.975,2.76-2.646,4.328c-0.785,1.905-1.149,3.558-1.093,4.958
		c0.055,1.401,0.448,2.367,1.177,2.899c0.727,0.533,1.75,0.546,3.067,0.042c1.315-0.504,2.87-1.735,4.664-3.697
		c1.008-1.12,1.891-2.338,2.647-3.655c0.756-1.316,1.525-2.702,2.311-4.16c0.112-0.28,0.294-0.714,0.546-1.302
		C68.951,24.176,69.216,23.827,69.497,23.714z M77.228,47.326c-0.729,1.121-1.443,2.227-2.143,3.319
		c-0.701,1.093-1.443,2.199-2.227,3.319c0.952-0.168,1.918-0.168,2.899,0c0.979,0.168,1.946,0.561,2.899,1.176
		c1.063,0.785,1.736,1.485,2.017,2.101c0.279,0.617,0.307,0.981,0.084,1.093c-0.168,0.113-0.519,0.14-1.05,0.084
		c-0.533-0.055-0.939-0.084-1.219-0.084c-1.344,0.113-2.634,0.477-3.865,1.092c-1.233,0.617-2.297,1.428-3.193,2.437
		c-0.897,1.008-1.611,2.185-2.143,3.529c-0.533,1.345-0.63,2.689-0.294,4.033c0.168,0.729,0.49,1.303,0.966,1.723
		c0.476,0.42,1.008,0.743,1.597,0.966c0.588,0.225,1.218,0.351,1.891,0.378c0.672,0.029,1.315-0.013,1.933-0.126
		c1.399-0.224,2.674-0.728,3.823-1.513c1.147-0.784,2.17-1.723,3.067-2.815c0.896-1.092,1.639-2.282,2.227-3.571
		c0.588-1.288,1.021-2.605,1.302-3.949c0.28-1.399,0.42-2.941,0.42-4.622s-0.308-3.164-0.924-4.454
		c-0.504-1.008-1.206-1.82-2.101-2.437c-0.896-0.616-1.849-1.12-2.857-1.513c-0.504,0-0.995-0.013-1.47-0.042
		c-0.477-0.027-0.966-0.069-1.471-0.126H77.228z M80.168,42.62l1.26,0.252c1.456-0.111,2.912-0.406,4.37-0.882
		c1.456-0.475,2.773-1.162,3.949-2.059c1.063-0.728,2.128-1.694,3.193-2.899c1.063-1.204,1.96-2.506,2.689-3.907
		c0.727-1.4,1.162-2.843,1.302-4.328c0.139-1.483-0.21-2.87-1.05-4.159c-0.672-1.008-1.485-1.904-2.437-2.689l-0.336,0.336
		c-2.185,2.409-4.09,5.042-5.714,7.899c-1.625,2.857-3.25,5.686-4.874,8.487L80.168,42.62z"/>
	<path fill="#FFF200" d="M144.533,39.511c-0.617,0.84-1.359,1.933-2.227,3.277c-0.869,1.344-1.779,2.802-2.731,4.37
		c-0.953,1.569-1.891,3.193-2.815,4.874s-1.751,3.277-2.479,4.79c-1.512,3.138-2.689,5.771-3.529,7.898
		c-0.84,2.13-1.065,3.502-0.672,4.118c0.168,0.281,0.462,0.407,0.882,0.378c0.42-0.027,0.882-0.126,1.386-0.294
		c0.504-0.168,0.966-0.378,1.387-0.63c0.42-0.252,0.714-0.433,0.882-0.546c1.231-0.784,2.324-1.694,3.277-2.731
		c0.952-1.036,1.849-2.114,2.689-3.235c0.784-1.063,1.54-2.185,2.269-3.361c0.727-1.177,1.399-2.324,2.017-3.445
		c0.672-0.168,1.246-0.168,1.722,0c0.476,0.168,0.798,0.617,0.967,1.344c-0.785,1.458-1.542,2.886-2.269,4.286
		c-0.729,1.401-1.569,2.773-2.521,4.117c-0.896,1.345-1.835,2.634-2.815,3.866c-0.98,1.232-2.031,2.409-3.151,3.529
		c-1.065,1.065-2.227,2.004-3.487,2.815c-1.26,0.813-2.676,1.191-4.243,1.135c-1.569,0-2.97-0.448-4.202-1.345
		c-1.233-0.896-2.129-2.072-2.689-3.529c-0.281-0.672-0.477-1.428-0.588-2.269c-0.897,1.289-1.849,2.466-2.857,3.529
		c-1.008,1.064-2.157,1.961-3.445,2.689c-1.793,1.008-3.669,1.428-5.63,1.26c-1.961-0.168-3.669-0.924-5.125-2.269
		c-1.401-1.288-2.353-2.815-2.857-4.579c-0.504-1.765-0.756-3.542-0.756-5.336c0.056-2.24,0.42-4.454,1.092-6.638
		c0.672-2.185,1.555-4.286,2.647-6.302s2.353-3.907,3.781-5.672c1.428-1.765,2.954-3.374,4.58-4.832
		c1.567-1.456,3.347-2.632,5.335-3.529c1.988-0.896,4.047-1.288,6.176-1.176c2.072,0.113,3.893,0.743,5.462,1.891
		c1.567,1.149,2.716,2.676,3.445,4.58c0.672-0.784,1.442-1.498,2.311-2.143c0.868-0.643,1.778-1.134,2.731-1.47
		c1.008-0.391,2.086-0.56,3.235-0.504C142.866,38.475,143.805,38.839,144.533,39.511z M117.98,62.535
		c2.521-1.792,4.79-4.088,6.806-6.89c2.017-2.801,3.333-5.769,3.949-8.907c0.28-1.176,0.252-2.338-0.084-3.487
		c-0.336-1.148-1.205-1.834-2.604-2.059c-1.122-0.168-2.157,0.057-3.109,0.672c-0.953,0.617-1.821,1.29-2.605,2.017
		c-2.409,2.353-4.356,5.042-5.84,8.067c-1.485,3.025-2.619,6.163-3.403,9.411c-0.729,3.25-0.575,5.392,0.462,6.428
		c1.036,1.037,2.45,1.079,4.244,0.126c1.176-0.616,2.282-1.372,3.319-2.269c1.036-0.895,2.03-1.819,2.983-2.773
		c-0.785,0.168-1.583,0.267-2.395,0.294C118.89,63.194,118.316,62.984,117.98,62.535z"/>
	<path fill="#FFF200" d="M198.814,18.504c-0.785,1.458-1.821,3.319-3.109,5.588c-1.289,2.269-2.718,4.79-4.285,7.563
		c-1.569,2.773-3.193,5.729-4.874,8.865c-1.68,3.138-3.319,6.302-4.916,9.495c-1.596,3.193-3.082,6.344-4.454,9.453
		c-1.373,3.109-2.507,6.037-3.403,8.781c-0.281,0.953-0.323,1.667-0.126,2.143c0.195,0.477,0.559,0.729,1.092,0.756
		c0.532,0.029,1.218-0.139,2.059-0.504c0.84-0.364,1.765-0.938,2.773-1.723c0.84-0.672,1.723-1.513,2.647-2.521
		s1.862-2.128,2.815-3.361c0.952-1.232,1.862-2.534,2.731-3.908c0.868-1.372,1.693-2.758,2.479-4.159
		c0.728-0.391,1.358-0.433,1.891-0.126c0.532,0.309,0.798,0.798,0.798,1.47c-1.625,3.025-3.6,6.05-5.924,9.075
		c-2.325,3.025-4.86,5.714-7.604,8.067c-1.29,1.121-2.563,2.003-3.823,2.647c-1.261,0.643-2.466,1.021-3.613,1.134
		c-1.149,0.111-2.227-0.071-3.235-0.546c-1.008-0.475-1.877-1.273-2.604-2.395c-0.617-0.896-1.023-1.834-1.219-2.815
		c-0.197-0.979-0.266-2.03-0.21-3.151c-0.953,1.233-2.017,2.451-3.193,3.655c-1.177,1.206-2.451,2.227-3.823,3.067
		c-1.374,0.84-2.815,1.401-4.328,1.681c-1.513,0.28-3.054,0.112-4.622-0.504c-1.625-0.616-2.886-1.54-3.781-2.773
		c-0.896-1.231-1.525-2.605-1.891-4.118c-0.364-1.512-0.517-3.067-0.462-4.664c0.056-1.596,0.252-3.122,0.588-4.579
		c0.729-3.193,1.918-6.218,3.571-9.075c1.652-2.857,3.571-5.462,5.756-7.815c1.12-1.176,2.38-2.296,3.781-3.361
		c1.4-1.063,2.899-1.933,4.496-2.605s3.235-1.105,4.916-1.302c1.681-0.196,3.361-0.042,5.042,0.462
		c1.456,0.449,2.563,1.092,3.319,1.933s1.303,1.793,1.639,2.857c0.784-1.456,1.582-2.87,2.395-4.243
		c0.812-1.372,1.639-2.759,2.479-4.16c1.231-2.072,2.618-4.34,4.16-6.806c1.54-2.464,3.122-4.565,4.748-6.302
		c0.672-0.727,1.441-1.273,2.311-1.638c0.868-0.364,1.75-0.588,2.647-0.672c0.896-0.084,1.736-0.028,2.521,0.168
		C197.75,17.734,198.365,18.056,198.814,18.504z M164.195,62.535c1.567-1.792,2.842-3.781,3.823-5.966
		c0.979-2.185,2.086-4.538,3.319-7.059c0.504-1.12,0.798-2.282,0.882-3.487c0.084-1.204-0.084-2.227-0.504-3.067
		c-0.42-0.84-1.093-1.372-2.017-1.596c-0.924-0.224-2.171,0.056-3.739,0.84c-1.458,0.785-2.788,1.779-3.992,2.983
		c-1.205,1.205-2.297,2.535-3.277,3.991c-0.981,1.458-1.849,2.97-2.605,4.538c-0.756,1.569-1.416,3.109-1.975,4.622
		c-0.225,0.504-0.477,1.218-0.756,2.143c-0.281,0.924-0.546,1.905-0.798,2.941c-0.252,1.037-0.407,2.045-0.462,3.025
		c-0.057,0.981,0.069,1.765,0.378,2.353c0.307,0.588,0.826,0.911,1.555,0.966c0.727,0.056,1.792-0.307,3.193-1.092
		c1.345-0.784,2.605-1.694,3.781-2.731C162.178,64.902,163.241,63.768,164.195,62.535z"/>
	<path fill="#FFF200" d="M179.823,69.173c3.417-3.92,6.499-8.136,9.243-12.646c2.744-4.509,5.069-9.34,6.974-14.495
		c-0.672-1.288-0.953-2.576-0.84-3.865c0.112-1.288,0.434-2.408,0.966-3.361c0.532-0.952,1.219-1.625,2.059-2.017
		c0.84-0.391,1.68-0.307,2.521,0.252c0.952,0.617,1.345,1.499,1.176,2.646c-0.168,1.149-0.477,2.283-0.924,3.403
		c0.392,0.225,0.854,0.336,1.387,0.336c0.532,0,0.994,0,1.386,0c1.456-0.111,2.801-0.363,4.034-0.756
		c0.784-1.12,1.512-1.891,2.185-2.311c0.672-0.42,1.484-0.238,2.437,0.546c2.24,1.737,3.515,3.375,3.823,4.916
		c0.307,1.542-0.183,2.983-1.471,4.328c-2.129,2.745-4.201,5.686-6.218,8.823c-2.017,3.138-3.529,6.05-4.538,8.739
		c-0.729,1.962-1.038,3.544-0.924,4.748c0.111,1.206,0.532,1.989,1.26,2.353c0.728,0.365,1.694,0.323,2.899-0.126
		c1.204-0.448,2.534-1.315,3.991-2.605c1.625-1.456,3.333-3.361,5.126-5.714c1.792-2.353,3.361-4.817,4.706-7.395
		c0.784-0.448,1.414-0.49,1.891-0.126c0.475,0.365,0.742,0.854,0.798,1.47c-1.513,2.857-3.067,5.491-4.664,7.899
		c-1.597,2.409-3.487,4.706-5.672,6.89c-1.793,1.793-3.613,3.124-5.462,3.992c-1.849,0.869-3.613,1.359-5.294,1.47
		c-1.681,0.112-3.193-0.168-4.538-0.84c-1.344-0.672-2.409-1.666-3.193-2.983c-0.785-1.315-1.205-2.941-1.26-4.874
		c-0.057-1.933,0.391-4.13,1.344-6.596c1.12-2.969,2.521-5.91,4.202-8.823c1.68-2.912,3.305-5.377,4.874-7.395
		c-0.449,0-0.756-0.027-0.924-0.084c-0.504-0.055-1.149-0.181-1.933-0.378c-0.785-0.196-1.569-0.462-2.353-0.798
		c-0.617,1.625-1.401,3.543-2.353,5.756c-0.953,2.214-2.073,4.496-3.361,6.849c-1.065,2.017-2.143,3.865-3.235,5.545
		c-1.092,1.681-2.198,3.082-3.319,4.202c-1.12,1.121-2.254,1.961-3.403,2.521C182.079,69.229,180.944,69.397,179.823,69.173z"/>
	<path fill="#FFF200" d="M262.59,39.511c-0.617,0.84-1.358,1.933-2.227,3.277c-0.869,1.344-1.779,2.802-2.73,4.37
		c-0.954,1.569-1.892,3.193-2.815,4.874s-1.751,3.277-2.479,4.79c-1.513,3.138-2.689,5.771-3.529,7.898
		c-0.841,2.13-1.065,3.502-0.673,4.118c0.169,0.281,0.463,0.407,0.883,0.378c0.42-0.027,0.882-0.126,1.387-0.294
		c0.504-0.168,0.966-0.378,1.386-0.63c0.421-0.252,0.715-0.433,0.883-0.546c1.231-0.784,2.324-1.694,3.277-2.731
		c0.951-1.036,1.849-2.114,2.688-3.235c0.784-1.063,1.54-2.185,2.269-3.361c0.728-1.177,1.399-2.324,2.017-3.445
		c0.673-0.168,1.246-0.168,1.723,0c0.476,0.168,0.799,0.617,0.967,1.344c-0.785,1.458-1.542,2.886-2.269,4.286
		c-0.729,1.401-1.569,2.773-2.521,4.117c-0.896,1.345-1.835,2.634-2.814,3.866c-0.981,1.232-2.031,2.409-3.151,3.529
		c-1.064,1.065-2.227,2.004-3.487,2.815c-1.261,0.813-2.676,1.191-4.243,1.135c-1.569,0-2.97-0.448-4.201-1.345
		c-1.233-0.896-2.13-2.072-2.689-3.529c-0.281-0.672-0.477-1.428-0.588-2.269c-0.897,1.289-1.849,2.466-2.857,3.529
		c-1.008,1.064-2.157,1.961-3.445,2.689c-1.793,1.008-3.669,1.428-5.63,1.26c-1.961-0.168-3.669-0.924-5.125-2.269
		c-1.401-1.288-2.353-2.815-2.857-4.579c-0.504-1.765-0.756-3.542-0.756-5.336c0.056-2.24,0.42-4.454,1.092-6.638
		c0.672-2.185,1.555-4.286,2.647-6.302s2.353-3.907,3.781-5.672c1.428-1.765,2.954-3.374,4.58-4.832
		c1.567-1.456,3.347-2.632,5.335-3.529c1.988-0.896,4.047-1.288,6.176-1.176c2.072,0.113,3.894,0.743,5.462,1.891
		c1.568,1.149,2.717,2.676,3.445,4.58c0.673-0.784,1.441-1.498,2.311-2.143c0.868-0.643,1.778-1.134,2.731-1.47
		c1.008-0.391,2.086-0.56,3.235-0.504C260.923,38.475,261.861,38.839,262.59,39.511z M236.037,62.535
		c2.521-1.792,4.79-4.088,6.807-6.89c2.017-2.801,3.332-5.769,3.949-8.907c0.279-1.176,0.252-2.338-0.084-3.487
		c-0.337-1.148-1.206-1.834-2.605-2.059c-1.121-0.168-2.157,0.057-3.109,0.672c-0.953,0.617-1.821,1.29-2.605,2.017
		c-2.409,2.353-4.356,5.042-5.84,8.067c-1.485,3.025-2.619,6.163-3.403,9.411c-0.729,3.25-0.575,5.392,0.462,6.428
		c1.036,1.037,2.45,1.079,4.244,0.126c1.176-0.616,2.282-1.372,3.319-2.269c1.036-0.895,2.03-1.819,2.983-2.773
		c-0.785,0.168-1.583,0.267-2.395,0.294C236.947,63.194,236.373,62.984,236.037,62.535z"/>
	<path fill="#FFF200" d="M305.443,54.972c1.735-0.728,2.632-0.28,2.688,1.344c-1.681,3.193-3.502,6.205-5.462,9.033
		c-1.961,2.83-4.174,5.42-6.638,7.772c-1.065,1.008-2.298,1.947-3.697,2.815c-1.401,0.868-2.83,1.484-4.286,1.849
		c-1.457,0.364-2.913,0.392-4.369,0.084c-1.457-0.308-2.772-1.163-3.949-2.563c-1.009-1.12-1.625-2.408-1.849-3.865
		c-0.225-1.456-0.21-2.969,0.042-4.538c0.252-1.568,0.644-3.109,1.177-4.622c0.531-1.513,1.05-2.912,1.554-4.202
		c1.12-2.521,2.423-4.943,3.908-7.268c1.483-2.324,2.842-4.748,4.075-7.269c-1.626,1.289-3.376,2.802-5.252,4.538
		c-1.878,1.737-3.46,3.39-4.748,4.958c-1.681,2.017-3.276,4.075-4.789,6.176c-1.513,2.101-2.998,4.243-4.454,6.428
		c-0.729,1.122-1.428,2.227-2.101,3.319c-0.672,1.092-1.316,2.199-1.933,3.319c-0.336,0.504-0.756,1.134-1.26,1.891
		c-0.505,0.756-1.204,1.106-2.101,1.05c-0.673,0-1.345-0.196-2.018-0.588c-0.672-0.391-1.273-0.868-1.807-1.428
		c-0.531-0.56-0.951-1.162-1.26-1.807c-0.308-0.644-0.406-1.219-0.294-1.723c0.896-4.089,2.423-8.025,4.579-11.806
		s4.355-7.437,6.597-10.966c0.951-1.456,1.861-2.968,2.73-4.537c0.868-1.568,1.834-3.081,2.899-4.538
		c0.504-0.728,1.161-1.231,1.975-1.513c0.812-0.28,1.945,0,3.402,0.84c0.673,0.393,1.19,0.771,1.555,1.134
		c0.364,0.365,0.547,0.813,0.547,1.345c0,0.533-0.211,1.191-0.631,1.975c-0.42,0.785-1.05,1.765-1.891,2.941
		c-0.785,1.065-1.61,2.353-2.479,3.865c-0.869,1.513-1.611,2.886-2.227,4.117c0.896-1.008,1.975-2.212,3.234-3.613
		c1.261-1.4,2.591-2.801,3.992-4.202c1.399-1.399,2.814-2.689,4.243-3.865s2.759-2.072,3.991-2.689
		c1.513-0.784,3.29-1.063,5.336-0.84c2.044,0.225,3.878,1.122,5.504,2.689c0.447,0.449,0.644,0.827,0.588,1.134
		c-0.057,0.309-0.225,0.743-0.504,1.303c-0.504,1.176-1.093,2.353-1.765,3.529c-0.672,1.233-1.373,2.452-2.101,3.655
		c-0.729,1.206-1.429,2.452-2.101,3.739c-0.953,1.737-1.975,3.571-3.067,5.504s-2.031,3.852-2.815,5.756
		c-0.84,2.298-1.079,3.979-0.714,5.042c0.364,1.064,1.093,1.583,2.185,1.554c1.093-0.027,2.45-0.574,4.075-1.638
		c1.625-1.063,3.277-2.605,4.958-4.622c1.177-1.456,2.324-2.996,3.445-4.622C303.286,58.726,304.378,56.934,305.443,54.972z"/>
	<path fill="#FFF200" d="M305.443,54.972c0.279-0.448,0.868-0.672,1.765-0.672c0.896,0,1.765,0.561,2.604,1.681
		c1.009,1.29,1.723,2.857,2.143,4.706c0.421,1.849,0.589,3.865,0.505,6.05c-0.084,2.185-0.42,4.468-1.009,6.848
		c-0.588,2.382-1.415,4.775-2.479,7.185c-1.905,4.424-4.229,8.024-6.975,10.797c-2.744,2.773-5.853,4.929-9.327,6.47
		c-3.473,1.54-7.254,2.563-11.344,3.067c-4.088,0.504-8.431,0.672-13.024,0.504c-14.789-0.561-29.675-1.037-44.661-1.429
		c-14.985-0.393-29.633-0.617-43.947-0.672c-14.313-0.057-28.079,0.084-41.3,0.42c-13.22,0.336-25.488,0.91-36.805,1.723
		c-11.314,0.812-21.469,1.904-30.46,3.277c-8.991,1.372-16.398,3.067-22.226,5.084c-1.512,0.504-2.674,0.882-3.487,1.134
		c-0.811,0.252-1.357,0.294-1.638,0.126c-0.28-0.168-0.322-0.603-0.126-1.302c0.197-0.701,0.575-1.723,1.134-3.067
		c1.401-3.081,3.292-5.785,5.672-8.108c2.382-2.325,4.972-4.286,7.772-5.882c2.802-1.597,5.645-2.857,8.529-3.782
		c2.886-0.924,5.504-1.583,7.857-1.975c5.491-0.896,11.904-1.527,19.242-1.891c7.339-0.365,15.266-0.546,23.78-0.546
		c8.516,0,17.45,0.153,26.805,0.462c9.356,0.307,18.78,0.7,28.275,1.177c9.495,0.475,18.894,0.994,28.191,1.554
		c9.3,0.56,18.165,1.092,26.595,1.597c8.432,0.504,16.259,0.938,23.486,1.302c7.227,0.364,13.501,0.602,18.822,0.714
		c2.97,0.055,6.205,0.055,9.705,0c3.502-0.057,6.905-0.462,10.21-1.218c3.306-0.756,6.373-2.004,9.201-3.739
		c2.829-1.737,5.083-4.258,6.764-7.563c1.12-2.298,1.975-4.607,2.563-6.933c0.588-2.324,0.895-4.496,0.924-6.512
		c0.027-2.017-0.239-3.809-0.798-5.377c-0.562-1.568-1.429-2.744-2.605-3.529c-0.281-0.168-0.462-0.406-0.546-0.714
		C305.149,55.631,305.22,55.308,305.443,54.972z"/>
</g>
</svg>
